<?xml version="1.0" encoding="UTF-8"?> <svg xmlns="http://www.w3.org/2000/svg" width="300" height="186" viewBox="0 0 300 186" fill="none"><rect width="300" height="186" fill="#051C2C"></rect><path fill-rule="evenodd" clip-rule="evenodd" d="M108.186 95.8193C108.167 96.3586 107.73 96.7846 107.192 96.7846C106.655 96.7846 106.213 96.3586 106.195 95.8193V88.7945H105.64C103.356 88.7673 101.148 89.6284 99.4828 91.2011C97.8849 92.7284 96.982 94.8584 96.9911 97.0746V106.796C96.9957 109.057 97.921 111.219 99.5505 112.783C101.212 114.383 103.432 115.271 105.735 115.262H105.992V108.568C105.992 108.015 106.439 107.571 106.989 107.571C107.54 107.571 107.982 108.015 107.982 108.568V117.913C107.982 117.954 107.982 117.99 107.978 118.031C107.937 118.761 108.113 119.49 108.493 120.12C108.944 120.864 109.576 121.48 110.33 121.911C111.779 122.763 113.575 122.763 115.024 121.911C115.728 121.498 116.302 120.9 116.685 120.179C117.06 119.468 117.227 118.666 117.164 117.863C117.159 117.818 117.159 117.768 117.164 117.718V87.8336V87.8381C117.091 86.7232 116.586 85.6808 115.76 84.9285C114.004 83.3468 111.341 83.3559 109.594 84.9467C108.777 85.6945 108.271 86.7232 108.181 87.8336V95.8192L108.186 95.8193ZM136.425 104.707L131.076 108.663C130.774 108.885 130.376 108.917 130.042 108.749C129.708 108.577 129.496 108.233 129.496 107.857V100.614H126.838C126.287 100.614 125.84 100.17 125.84 99.6173V77.818C125.84 77.5551 125.948 77.2968 126.133 77.111C126.323 76.9252 126.576 76.8164 126.838 76.8164H156.399C156.661 76.8164 156.914 76.9252 157.103 77.111C157.288 77.2968 157.392 77.5551 157.392 77.818V83.4151H167.16C167.422 83.4106 167.679 83.5193 167.864 83.7051C168.054 83.891 168.158 84.1493 168.158 84.4122V106.211C168.158 106.474 168.054 106.728 167.864 106.918C167.679 107.104 167.422 107.209 167.16 107.209H164.325V114.637C164.325 115.013 164.109 115.357 163.77 115.529C163.436 115.697 163.03 115.661 162.727 115.434L151.867 107.209H137.423C136.872 107.209 136.425 106.76 136.425 106.207V104.698L136.425 104.707ZM155.402 83.4145V78.819H127.839V98.6146H130.498C130.76 98.6146 131.013 98.7188 131.202 98.9092C131.387 99.095 131.491 99.3488 131.491 99.6162V105.88L136.429 102.227L136.434 84.4116C136.434 83.8587 136.876 83.4145 137.427 83.4145L155.402 83.4145ZM143.534 101.661H161.048C161.598 101.661 162.045 101.217 162.045 100.664C162.045 100.111 161.598 99.6626 161.048 99.6626H143.534C142.983 99.6626 142.536 100.111 142.536 100.664C142.536 101.217 142.983 101.661 143.534 101.661ZM143.534 96.3043L161.048 96.3088C161.319 96.3179 161.58 96.2136 161.774 96.0278C161.969 95.8375 162.077 95.5791 162.077 95.3072C162.077 95.0353 161.969 94.777 161.774 94.5866C161.58 94.3963 161.319 94.2966 161.048 94.3056H143.534C142.997 94.3237 142.573 94.7679 142.573 95.3072C142.573 95.8465 142.997 96.2907 143.534 96.3088V96.3043ZM143.534 90.9473L161.048 90.9518C161.319 90.9609 161.58 90.8612 161.774 90.6709C161.969 90.4805 162.077 90.2222 162.077 89.9503C162.077 89.6783 161.969 89.42 161.774 89.2297C161.58 89.0438 161.319 88.9396 161.048 88.9487H143.534C142.997 88.9668 142.573 89.4109 142.573 89.9503C142.573 90.4896 142.997 90.9337 143.534 90.9518V90.9473ZM152.842 105.445L162.334 112.629V106.211C162.334 105.658 162.777 105.21 163.327 105.21H166.162V85.4142H138.42V105.21H152.201C152.435 105.21 152.661 105.291 152.842 105.441L152.842 105.445ZM106.222 86.8634H105.635H105.64C104.127 86.8588 102.629 87.1579 101.234 87.7516C101.329 80.3688 103.31 73.1306 106.994 66.7413C111.011 59.7755 116.812 54.0196 123.794 50.0632C138.198 41.9009 155.802 41.9009 170.206 50.0632C177.189 54.0198 182.986 59.7755 187.002 66.7413C190.695 73.1496 192.676 80.4052 192.767 87.8108C191.318 87.1763 189.751 86.85 188.171 86.8545H187.594C187.187 76.7072 182.858 67.1216 175.528 60.129C167.796 52.8051 157.568 48.7308 146.938 48.7308C136.312 48.7353 126.083 52.8142 118.351 60.138C110.98 67.1084 106.625 76.7024 106.218 86.8636L106.222 86.8634ZM119.741 61.5105C113.652 67.2844 109.693 74.9666 108.519 83.2958C111.052 81.2338 114.699 81.3289 117.114 83.5269C118.314 84.6056 119.041 86.1103 119.149 87.7237V117.721C119.24 118.877 119 120.037 118.459 121.066C117.904 122.104 117.078 122.969 116.066 123.563C113.977 124.8 111.386 124.8 109.3 123.563C108.262 122.96 107.391 122.104 106.772 121.075C106.199 120.118 105.928 119.008 106 117.898V117.2H105.743C102.913 117.209 100.196 116.117 98.1553 114.15C96.1466 112.233 95.0091 109.577 95.0001 106.794V97.0728C94.991 94.3309 96.1105 91.7069 98.0921 89.817C98.4532 89.468 98.8369 89.1508 99.2477 88.8562C99.1438 80.7664 101.22 72.7942 105.256 65.7923C109.449 58.5273 115.502 52.5182 122.788 48.3937C137.815 39.8688 156.181 39.8688 171.208 48.3937C178.493 52.5179 184.542 58.5275 188.735 65.7969C192.78 72.8262 194.856 80.8205 194.743 88.9374C195.123 89.2093 195.488 89.5084 195.827 89.8302C197.844 91.6929 198.995 94.3215 199 97.0725V106.794C198.995 109.572 197.858 112.232 195.854 114.149C193.814 116.116 191.092 117.213 188.266 117.199H187.625V117.897C187.647 118.215 187.647 118.532 187.625 118.849V127.261C187.62 130.052 186.496 132.731 184.501 134.684C182.497 136.665 179.798 137.771 176.981 137.761H172.49C172.269 138.99 171.686 140.118 170.815 141.011C169.669 142.189 168.121 142.892 166.482 142.982H158.862C157.675 143.069 156.488 142.837 155.418 142.307C154.362 141.786 153.473 140.984 152.841 139.987C151.568 137.988 151.568 135.423 152.841 133.424C153.473 132.427 154.362 131.625 155.418 131.104C156.488 130.574 157.675 130.342 158.862 130.429H166.482C168.121 130.519 169.669 131.222 170.815 132.4C171.732 133.338 172.327 134.539 172.522 135.835H176.986C179.27 135.844 181.459 134.952 183.089 133.343C184.714 131.747 185.63 129.558 185.63 127.274V122.901C185.345 123.15 185.034 123.372 184.709 123.562C182.619 124.8 180.028 124.8 177.938 123.562C176.927 122.969 176.101 122.103 175.55 121.065C175.004 120.037 174.765 118.876 174.855 117.721V87.7233C174.964 86.1099 175.69 84.6007 176.891 83.522C178.105 82.4162 179.681 81.8089 181.319 81.8089C182.754 81.7998 184.154 82.2847 185.273 83.1866C184.091 74.9065 180.163 67.2696 174.128 61.501C166.771 54.5443 157.044 50.6694 146.932 50.6694C136.826 50.6694 127.098 54.5492 119.741 61.5105ZM188.172 88.794H187.626V95.8594C187.607 96.3987 187.165 96.8293 186.628 96.8293C186.091 96.8293 185.648 96.3988 185.63 95.8594V87.824C185.554 86.7182 185.071 85.6803 184.276 84.9099C183.477 84.1576 182.421 83.7406 181.324 83.7497C180.182 83.7452 179.081 84.1666 178.237 84.9325C177.406 85.6803 176.905 86.7227 176.833 87.8421V117.872V117.867C176.77 118.67 176.937 119.472 177.311 120.183C177.695 120.904 178.268 121.502 178.968 121.915C180.421 122.767 182.218 122.767 183.667 121.915C184.326 121.534 184.863 120.972 185.211 120.292L185.233 120.251V120.247C185.45 119.798 185.585 119.313 185.626 118.815V108.568C185.644 108.028 186.086 107.602 186.623 107.602C187.161 107.602 187.598 108.028 187.616 108.568V115.262H188.262C190.564 115.271 192.78 114.382 194.446 112.782C196.076 111.219 197.001 109.057 197.001 106.796V97.0742C197.001 94.8535 196.075 92.737 194.451 91.2323C192.74 89.6461 190.492 88.7759 188.163 88.794L188.172 88.794ZM166.37 141.044C167.503 140.985 168.577 140.496 169.372 139.685C170.134 138.905 170.572 137.858 170.59 136.766V136.702C170.59 135.583 170.153 134.509 169.372 133.711C168.573 132.9 167.503 132.411 166.365 132.352H158.714C157.893 132.288 157.062 132.447 156.322 132.814C155.591 133.172 154.972 133.729 154.534 134.418C153.659 135.805 153.659 137.577 154.534 138.964C154.972 139.653 155.591 140.206 156.322 140.568C157.067 140.931 157.893 141.094 158.714 141.031C158.764 141.026 158.818 141.026 158.868 141.031L166.37 141.044Z" fill="white"></path><path d="M119.741 61.515V61.5105M119.741 61.5105C113.652 67.2844 109.693 74.9666 108.519 83.2958C111.052 81.2338 114.699 81.3289 117.114 83.5269C118.314 84.6056 119.041 86.1103 119.149 87.7237V117.721C119.24 118.877 119.001 120.037 118.459 121.066C117.904 122.104 117.078 122.969 116.066 123.563C113.977 124.8 111.386 124.8 109.3 123.563C108.262 122.96 107.391 122.104 106.772 121.075C106.199 120.118 105.928 119.008 106 117.898V117.2H105.743C102.913 117.209 100.196 116.117 98.1553 114.15C96.1466 112.233 95.0091 109.577 95.0001 106.794V97.0729C94.991 94.3309 96.1105 91.7069 98.0921 89.817C98.4532 89.468 98.8369 89.1508 99.2477 88.8562C99.1438 80.7664 101.22 72.7942 105.256 65.7923C109.449 58.5273 115.502 52.5182 122.788 48.3937C137.815 39.8688 156.181 39.8688 171.208 48.3937C178.493 52.5179 184.542 58.5275 188.735 65.7969C192.78 72.8262 194.856 80.8205 194.743 88.9374C195.123 89.2093 195.488 89.5084 195.827 89.8302C197.844 91.6929 198.995 94.3215 199 97.0725V106.794C198.995 109.572 197.858 112.232 195.854 114.149C193.814 116.116 191.092 117.213 188.266 117.199H187.625V117.897C187.647 118.215 187.647 118.532 187.625 118.849V127.261C187.62 130.052 186.496 132.731 184.501 134.684C182.497 136.665 179.798 137.771 176.981 137.761H172.49C172.269 138.99 171.686 140.118 170.815 141.011C169.669 142.189 168.121 142.892 166.482 142.982H158.862C157.675 143.069 156.488 142.837 155.418 142.307C154.362 141.786 153.473 140.984 152.841 139.987C151.568 137.988 151.568 135.423 152.841 133.424C153.473 132.427 154.362 131.625 155.418 131.104C156.488 130.574 157.675 130.342 158.862 130.429H166.482C168.121 130.519 169.669 131.222 170.815 132.4C171.732 133.338 172.327 134.539 172.522 135.835H176.986C179.27 135.844 181.459 134.952 183.089 133.343C184.714 131.747 185.63 129.558 185.63 127.274V122.901C185.345 123.15 185.034 123.372 184.709 123.562C182.619 124.8 180.028 124.8 177.938 123.562C176.927 122.969 176.101 122.103 175.55 121.065C175.004 120.037 174.765 118.876 174.855 117.721V87.7233C174.964 86.1099 175.69 84.6007 176.891 83.522C178.105 82.4162 179.681 81.8089 181.319 81.8089C182.754 81.7998 184.154 82.2847 185.273 83.1866C184.091 74.9065 180.163 67.2696 174.128 61.501C166.771 54.5443 157.044 50.6694 146.932 50.6694C136.826 50.6694 127.098 54.5492 119.741 61.5105ZM108.186 95.8193C108.167 96.3586 107.73 96.7846 107.192 96.7846C106.655 96.7846 106.213 96.3586 106.195 95.8193V88.7945H105.64C103.356 88.7673 101.148 89.6284 99.4828 91.2011C97.8849 92.7284 96.982 94.8584 96.9911 97.0746V106.796C96.9957 109.057 97.921 111.219 99.5505 112.783C101.212 114.383 103.432 115.271 105.735 115.262H105.992V108.568C105.992 108.015 106.439 107.571 106.989 107.571C107.54 107.571 107.982 108.015 107.982 108.568V117.913C107.982 117.954 107.982 117.99 107.978 118.031C107.937 118.761 108.113 119.49 108.493 120.12C108.944 120.864 109.576 121.48 110.33 121.911C111.779 122.763 113.575 122.763 115.024 121.911C115.728 121.498 116.302 120.9 116.685 120.179C117.06 119.468 117.227 118.666 117.164 117.863C117.159 117.818 117.159 117.768 117.164 117.718V87.8336V87.8381C117.091 86.7232 116.586 85.6808 115.76 84.9285C114.004 83.3468 111.341 83.3559 109.594 84.9467C108.777 85.6945 108.271 86.7232 108.181 87.8336V95.8192L108.186 95.8193ZM136.425 104.707L131.076 108.663C130.774 108.885 130.376 108.917 130.042 108.749C129.708 108.577 129.496 108.233 129.496 107.857V100.614H126.838C126.287 100.614 125.84 100.17 125.84 99.6173V77.818C125.84 77.5551 125.948 77.2968 126.133 77.111C126.323 76.9252 126.576 76.8164 126.838 76.8164H156.399C156.661 76.8164 156.914 76.9252 157.103 77.111C157.288 77.2968 157.392 77.5551 157.392 77.818V83.4151H167.16C167.422 83.4106 167.679 83.5193 167.864 83.7051C168.054 83.891 168.158 84.1493 168.158 84.4122V106.211C168.158 106.474 168.054 106.728 167.864 106.918C167.679 107.104 167.422 107.209 167.16 107.209H164.325V114.637C164.325 115.013 164.109 115.357 163.77 115.529C163.436 115.697 163.03 115.661 162.727 115.434L151.867 107.209H137.423C136.872 107.209 136.425 106.76 136.425 106.207V104.698L136.425 104.707ZM155.402 83.4145V78.819H127.839V98.6146H130.498C130.76 98.6146 131.013 98.7188 131.202 98.9092C131.387 99.095 131.491 99.3488 131.491 99.6162V105.88L136.429 102.227L136.434 84.4116C136.434 83.8587 136.876 83.4145 137.427 83.4145L155.402 83.4145ZM143.534 101.661H161.048C161.598 101.661 162.045 101.217 162.045 100.664C162.045 100.111 161.598 99.6626 161.048 99.6626H143.534C142.983 99.6626 142.536 100.111 142.536 100.664C142.536 101.217 142.983 101.661 143.534 101.661ZM143.534 96.3043L161.048 96.3088C161.319 96.3179 161.58 96.2136 161.774 96.0278C161.969 95.8375 162.077 95.5791 162.077 95.3072C162.077 95.0353 161.969 94.7769 161.774 94.5866C161.58 94.3963 161.319 94.2965 161.048 94.3056H143.534C142.997 94.3237 142.573 94.7679 142.573 95.3072C142.573 95.8465 142.997 96.2907 143.534 96.3088V96.3043ZM143.534 90.9473L161.048 90.9518C161.319 90.9609 161.58 90.8612 161.774 90.6709C161.969 90.4805 162.077 90.2222 162.077 89.9503C162.077 89.6783 161.969 89.42 161.774 89.2297C161.58 89.0438 161.319 88.9396 161.048 88.9487H143.534C142.997 88.9668 142.573 89.4109 142.573 89.9503C142.573 90.4896 142.997 90.9337 143.534 90.9518V90.9473ZM152.842 105.445L162.334 112.629V106.211C162.334 105.658 162.777 105.21 163.327 105.21H166.162V85.4142H138.42V105.21H152.201C152.435 105.21 152.661 105.291 152.842 105.441L152.842 105.445ZM106.222 86.8634H105.635H105.64C104.127 86.8588 102.629 87.1579 101.234 87.7516C101.329 80.3688 103.31 73.1306 106.994 66.7413C111.011 59.7755 116.812 54.0196 123.794 50.0632C138.198 41.9009 155.802 41.9009 170.206 50.0632C177.189 54.0198 182.986 59.7755 187.002 66.7413C190.695 73.1496 192.676 80.4052 192.767 87.8108C191.318 87.1763 189.751 86.85 188.171 86.8545H187.594C187.187 76.7072 182.858 67.1216 175.528 60.129C167.796 52.8051 157.568 48.7308 146.938 48.7308C136.312 48.7353 126.083 52.8142 118.351 60.138C110.98 67.1084 106.625 76.7024 106.218 86.8636L106.222 86.8634ZM188.172 88.794H187.626V95.8594C187.607 96.3987 187.165 96.8293 186.628 96.8293C186.091 96.8293 185.648 96.3988 185.63 95.8594V87.824C185.554 86.7182 185.071 85.6803 184.276 84.9099C183.477 84.1576 182.421 83.7406 181.324 83.7497C180.182 83.7452 179.081 84.1666 178.237 84.9325C177.406 85.6803 176.905 86.7227 176.833 87.8421V117.872V117.867C176.77 118.67 176.937 119.472 177.311 120.183C177.695 120.904 178.268 121.502 178.968 121.915C180.421 122.767 182.218 122.767 183.667 121.915C184.326 121.534 184.863 120.972 185.211 120.292L185.233 120.251V120.247C185.45 119.798 185.585 119.313 185.626 118.815V108.568C185.644 108.028 186.086 107.602 186.623 107.602C187.161 107.602 187.598 108.028 187.616 108.568V115.262H188.262C190.564 115.271 192.78 114.382 194.446 112.782C196.076 111.219 197.001 109.057 197.001 106.796V97.0742C197.001 94.8535 196.075 92.737 194.451 91.2323C192.74 89.6461 190.492 88.7759 188.163 88.794L188.172 88.794ZM166.37 141.044C167.503 140.985 168.577 140.496 169.372 139.685C170.134 138.905 170.572 137.858 170.59 136.766V136.702C170.59 135.583 170.153 134.509 169.372 133.711C168.573 132.9 167.503 132.411 166.365 132.352H158.714C157.893 132.288 157.062 132.447 156.322 132.814C155.591 133.172 154.972 133.729 154.534 134.418C153.659 135.805 153.659 137.577 154.534 138.964C154.972 139.653 155.591 140.206 156.322 140.568C157.067 140.931 157.893 141.094 158.714 141.031C158.764 141.026 158.818 141.026 158.868 141.031L166.37 141.044Z" stroke="white" stroke-width="0.5"></path></svg> 