<?xml version="1.0" encoding="UTF-8"?> <svg xmlns="http://www.w3.org/2000/svg" width="300" height="186" viewBox="0 0 300 186" fill="none"><rect width="300" height="186" fill="#051C2C"></rect><path fill-rule="evenodd" clip-rule="evenodd" d="M173.665 95.1739H180.307C180.8 95.1739 181.212 95.5164 181.318 95.9773L182.311 99.1651L182.634 100.201L182.63 68.9819H169.941V101.038C170.166 100.949 170.395 100.868 170.625 100.788L170.629 100.784L170.654 100.775L170.659 100.771L170.676 100.767L170.68 100.763L170.705 100.754L170.71 100.75L170.727 100.742H170.731L170.756 100.733L170.761 100.729L170.778 100.72H170.782L170.807 100.712L170.812 100.708L170.829 100.699H170.833L170.858 100.691L170.862 100.687L170.896 100.674L170.909 100.67L170.913 100.665L170.93 100.657H170.935L170.96 100.649L170.969 100.644L171.015 100.627L171.024 100.623L171.041 100.619V100.615L171.058 100.611L171.075 100.602L171.092 100.598L171.109 100.589C171.139 100.581 171.168 100.572 171.198 100.56L172.638 95.9472C172.756 95.5202 173.173 95.1739 173.665 95.1739ZM106.404 72.5087C107.992 72.5087 109.44 73.0794 110.561 74.035L124.333 62.4377C123.755 61.478 123.424 60.3575 123.424 59.1611C123.424 57.4023 124.142 55.8084 125.301 54.6541C126.461 53.5042 128.062 52.7854 129.828 52.7854C131.595 52.7854 133.196 53.4999 134.355 54.6541C135.514 55.8084 136.232 57.4023 136.232 59.1611C136.232 59.5163 136.202 59.863 136.147 60.2012L147.591 64.0444C147.893 63.482 148.275 62.9705 148.721 62.5224C149.88 61.3682 151.481 60.6536 153.248 60.6536C154.9 60.6536 156.403 61.2751 157.537 62.2982L171.088 51.5044C170.565 50.5827 170.264 49.5131 170.264 48.3757C170.264 46.6169 170.982 45.023 172.141 43.8688C173.3 42.7146 174.901 42 176.668 42C178.434 42 180.035 42.7145 181.195 43.8688C182.354 45.0188 183.072 46.6169 183.072 48.3757C183.072 50.1345 182.354 51.7285 181.195 52.8827C180.035 54.0369 178.434 54.7515 176.668 54.7515C175.016 54.7515 173.513 54.13 172.379 53.1069L158.828 63.9007C159.35 64.8266 159.652 65.892 159.652 67.0336C159.652 68.7924 158.934 70.3863 157.775 71.5405C156.615 72.6948 155.014 73.4093 153.248 73.4093C151.481 73.4093 149.88 72.6948 148.721 71.5405C147.562 70.3906 146.844 68.7924 146.844 67.0336C146.844 66.6784 146.874 66.3317 146.929 65.9935L135.485 62.1503C135.183 62.7126 134.801 63.2242 134.355 63.6723C133.196 64.8223 131.595 65.5411 129.828 65.5411C128.24 65.5411 126.792 64.9619 125.671 64.0148L111.899 75.612C112.477 76.5718 112.808 77.6922 112.808 78.8886C112.808 80.6474 112.09 82.2414 110.931 83.3956C109.771 84.5498 108.17 85.2601 106.404 85.2601C104.637 85.2601 103.036 84.5499 101.877 83.3956C100.718 82.2414 100 80.6474 100 78.8886C100 77.1298 100.718 75.5359 101.877 74.3816C103.036 73.2232 104.637 72.5087 106.404 72.5087ZM109.466 75.8318C108.68 75.0538 107.601 74.5676 106.404 74.5676C105.206 74.5676 104.123 75.0538 103.342 75.8318C102.557 76.6097 102.072 77.6878 102.072 78.8801C102.072 80.0724 102.556 81.1505 103.342 81.9284C104.128 82.7062 105.206 83.1925 106.404 83.1925C107.601 83.1925 108.684 82.7063 109.466 81.9284C110.251 81.1504 110.735 80.0724 110.735 78.8801C110.735 77.6878 110.251 76.6096 109.466 75.8318ZM132.886 56.1083C132.1 55.3303 131.017 54.8441 129.824 54.8441C128.626 54.8441 127.543 55.3303 126.762 56.1083C125.976 56.8862 125.492 57.9643 125.492 59.1566C125.492 60.3489 125.976 61.427 126.762 62.2049C127.548 62.9828 128.626 63.4691 129.824 63.4691C131.021 63.4691 132.104 62.9828 132.886 62.2049C133.671 61.4269 134.155 60.3489 134.155 59.1566C134.155 57.9685 133.671 56.8904 132.886 56.1083ZM156.305 63.9806C155.52 63.1984 154.441 62.7164 153.244 62.7164C152.046 62.7164 150.963 63.1984 150.182 63.9806C149.396 64.7585 148.912 65.8366 148.912 67.0289C148.912 68.2212 149.396 69.2993 150.182 70.0772C150.968 70.8551 152.046 71.3371 153.244 71.3371C154.441 71.3371 155.524 70.8552 156.305 70.0772C157.091 69.295 157.575 68.2212 157.575 67.0289C157.575 65.8366 157.087 64.7584 156.305 63.9806ZM179.725 45.3275C178.94 44.5496 177.857 44.0676 176.664 44.0676C175.466 44.0676 174.383 44.5495 173.602 45.3275C172.816 46.1097 172.332 47.1835 172.332 48.3758C172.332 49.5681 172.816 50.6462 173.602 51.4241C174.387 52.202 175.466 52.6883 176.664 52.6883C177.861 52.6883 178.944 52.2021 179.725 51.4241C180.511 50.6462 180.995 49.5681 180.995 48.3758C180.991 47.1835 180.507 46.1096 179.725 45.3275ZM101.537 101.203H116.294C116.863 101.203 117.33 101.664 117.33 102.231V125.497C117.33 126.067 116.867 126.528 116.294 126.528H101.537C100.968 126.528 100.501 126.067 100.501 125.497V102.235C100.501 101.664 100.964 101.203 101.537 101.203ZM115.262 103.267H102.573V124.47H115.262V103.267ZM123.993 80.5925C123.424 80.5925 122.957 81.0534 122.957 81.6241V125.497C122.957 126.068 123.42 126.528 123.993 126.528H138.75C139.319 126.528 139.786 126.068 139.786 125.497V81.6241C139.786 81.0576 139.323 80.5925 138.75 80.5925H123.993ZM137.718 82.6515H125.029V124.466H137.718V82.6515ZM146.449 92.4263H161.206C161.779 92.4263 162.242 92.8872 162.242 93.4579V99.9477L162.348 99.842C162.696 99.4954 163.223 99.4488 163.626 99.6941L167.873 101.922V67.9507C167.873 67.3842 168.336 66.9191 168.909 66.9191H183.665C184.234 66.9191 184.702 67.38 184.702 67.9507V101.313C185.148 101.507 185.593 101.719 186.035 101.951L190.405 99.6597C190.817 99.4483 191.305 99.5329 191.615 99.8415L196.312 104.518C196.66 104.86 196.707 105.388 196.46 105.79L194.193 110.077C194.473 110.61 194.728 111.143 194.953 111.68C195.178 112.221 195.382 112.775 195.556 113.345L200.265 114.8C200.711 114.935 200.996 115.345 200.996 115.781H201V122.393C201 122.884 200.656 123.294 200.193 123.399L195.556 124.833C195.378 125.399 195.178 125.957 194.953 126.499C194.728 127.035 194.477 127.568 194.193 128.101L196.494 132.451C196.711 132.861 196.622 133.348 196.312 133.656L191.615 138.332C191.267 138.675 190.74 138.726 190.337 138.48L186.031 136.223C185.496 136.502 184.961 136.755 184.421 136.98C183.878 137.204 183.322 137.407 182.748 137.58L181.287 142.269C181.151 142.713 180.744 142.996 180.302 142.996V143H173.66C173.168 143 172.756 142.658 172.65 142.197L171.21 137.58C170.641 137.402 170.081 137.204 169.537 136.979C168.998 136.755 168.463 136.502 167.928 136.223L163.558 138.514C163.146 138.73 162.658 138.641 162.348 138.332V138.337L157.651 133.661C157.303 133.318 157.256 132.79 157.502 132.392L159.77 128.101C159.494 127.585 159.248 127.061 159.027 126.537L146.449 126.528C145.875 126.528 145.413 126.067 145.413 125.497L145.417 93.4572C145.417 92.8906 145.88 92.4263 146.449 92.4263ZM161.86 109.604L159.66 105.44L161.949 103.161L163.283 101.829L167.466 104.023C167.81 104.205 168.213 104.171 168.515 103.968C169.092 103.647 169.699 103.355 170.341 103.089C170.668 102.954 170.995 102.831 171.322 102.721V102.717L171.343 102.708L171.351 102.704L171.364 102.696L171.411 102.679L171.432 102.67L171.44 102.666L171.47 102.658L171.474 102.653L171.496 102.645H171.5L171.521 102.636L171.53 102.632L171.551 102.645L171.568 102.641L171.572 102.636L171.598 102.628H171.602L171.623 102.62L171.649 102.611L171.67 102.603L171.674 102.598L171.7 102.59L171.704 102.586L171.725 102.581L171.75 102.573L171.772 102.565H171.776L171.801 102.556L171.806 102.552L171.827 102.543L171.852 102.535L171.874 102.526H171.878L171.903 102.518L171.908 102.514L171.929 102.505L171.942 102.501L171.95 102.497L171.971 102.488H171.976L172.001 102.48L172.005 102.476L172.022 102.472L172.035 102.467L172.043 102.463L172.065 102.459V102.455L172.09 102.446H172.099L172.116 102.438L172.128 102.433L172.137 102.429L172.158 102.421L172.184 102.412L172.192 102.408L172.209 102.404L172.222 102.4L172.23 102.395L172.281 102.379L172.29 102.374L172.324 102.366L172.332 102.362C172.396 102.345 172.455 102.324 172.511 102.298L172.523 102.29V102.286L172.562 102.26V102.256L172.6 102.231V102.226L172.613 102.218V102.214L172.638 102.197V102.192L172.651 102.184V102.18L172.689 102.154C172.855 102.028 172.982 101.854 173.046 101.643L174.447 97.1529H179.568L180.97 101.643C181.034 101.85 181.157 102.023 181.314 102.146L181.327 102.154V102.159L181.365 102.184V102.188L181.378 102.197V102.201L181.39 102.209V102.214L181.403 102.222V102.226L181.454 102.26V102.264L181.479 102.281H181.484L181.496 102.29L181.501 102.294L181.513 102.298L181.518 102.302C181.577 102.328 181.637 102.349 181.7 102.366L181.704 102.37L181.755 102.387L181.76 102.391L181.772 102.395C182.24 102.531 182.707 102.683 183.17 102.856L183.174 102.86L183.199 102.869V102.873L183.225 102.882L183.229 102.886L183.238 102.89L183.25 102.894C183.289 102.915 183.331 102.928 183.373 102.941C183.467 102.979 183.56 103.017 183.654 103.055C184.316 103.33 184.949 103.634 185.543 103.968C185.858 104.146 186.231 104.142 186.529 103.985V103.989L190.712 101.795L194.334 105.401L192.134 109.566C191.952 109.908 191.986 110.306 192.185 110.61C192.508 111.181 192.801 111.79 193.064 112.428C193.336 113.075 193.561 113.73 193.748 114.394C193.846 114.745 194.113 115.003 194.44 115.105L198.95 116.5V121.599L194.44 122.99C194.083 123.1 193.829 123.387 193.744 123.721C193.561 124.376 193.332 125.023 193.068 125.666C192.792 126.325 192.487 126.951 192.151 127.547C191.973 127.86 191.981 128.228 192.138 128.528V128.532L194.338 132.697L190.716 136.303L186.533 134.113C186.189 133.931 185.786 133.965 185.484 134.164C184.906 134.485 184.299 134.777 183.658 135.043C183.008 135.31 182.346 135.538 181.683 135.724C181.331 135.821 181.072 136.088 180.974 136.413L179.573 140.899H174.451L173.05 136.413C172.94 136.058 172.655 135.804 172.315 135.716C171.657 135.534 171.003 135.306 170.362 135.043C169.699 134.769 169.067 134.464 168.472 134.13C168.158 133.953 167.784 133.961 167.487 134.118V134.113L163.304 136.303L159.682 132.697L161.881 128.532C162.064 128.19 162.03 127.788 161.83 127.488C161.508 126.913 161.215 126.304 160.951 125.67C160.816 125.345 160.692 125.019 160.578 124.689L160.573 124.677C160.544 124.588 160.514 124.499 160.48 124.402C160.404 124.169 160.34 123.954 160.28 123.751L160.276 123.742L160.272 123.73V123.725L160.268 123.717C160.251 123.653 160.23 123.594 160.204 123.535V123.531L160.2 123.518V123.514L160.187 123.489V123.484L160.179 123.472V123.467L160.17 123.455L160.136 123.493V123.489L160.102 123.438V123.434L160.094 123.421V123.417L160.085 123.404V123.4L160.077 123.387V123.383C159.949 123.218 159.771 123.083 159.554 123.015L155.044 121.624V116.534L159.554 115.138C159.754 115.075 159.924 114.957 160.051 114.804L160.06 114.796V114.792L160.068 114.779V114.775L160.077 114.762V114.758L160.085 114.745V114.741L160.094 114.728V114.724L160.102 114.711V114.707L160.111 114.694V114.69L160.136 114.652V114.648L160.145 114.635V114.631L160.153 114.618V114.614L160.162 114.601V114.597L160.17 114.572V114.568C160.2 114.504 160.225 114.441 160.242 114.373L160.246 114.365L160.263 114.31L160.268 114.301L160.276 114.28L160.28 114.272L160.285 114.251L160.289 114.242L160.297 114.221L160.302 114.212L160.31 114.191L160.336 114.098L160.34 114.086L160.344 114.065L160.348 114.052L160.353 114.031L160.361 114.001L160.365 113.988L160.37 113.972L160.374 113.959L160.378 113.942L160.387 113.912L160.391 113.9L160.395 113.921L160.399 113.908L160.404 113.891L160.408 113.878L160.412 113.862L160.416 113.849L160.421 113.832L160.425 113.819L160.463 113.667L160.472 113.637L160.476 113.621L160.48 113.608L160.484 113.591L160.489 113.578L160.493 113.561L160.497 113.549L160.501 113.532L160.506 113.519L160.51 113.502L160.514 113.49L160.518 113.473L160.523 113.46L160.527 113.443L160.531 113.43L160.54 113.409L160.544 113.397L160.552 113.375L160.556 113.363L160.565 113.342L160.569 113.329L160.578 113.308L160.582 113.295L160.59 113.274L160.595 113.265L160.603 113.244L160.607 113.236L160.616 113.215L160.62 113.206L160.629 113.185L160.633 113.177L160.641 113.156L160.646 113.147L160.654 113.122L160.658 113.113L160.667 113.088L160.671 113.079L160.68 113.058L160.684 113.05L160.692 113.029L160.697 113.02L160.705 112.995L160.709 112.986L160.718 112.961L160.722 112.953L160.731 112.927L160.735 112.919L160.743 112.893L160.748 112.889L160.756 112.864V112.86L160.765 112.834V112.83L160.773 112.805V112.796L160.782 112.771V112.767L160.79 112.741V112.737L160.799 112.712V112.707L160.811 112.682V112.678L160.824 112.648V112.644L160.837 112.614V112.61L160.85 112.585V112.581L160.862 112.551V112.547L160.875 112.517V112.513L160.926 112.395V112.39L160.939 112.361V112.356L160.951 112.331V112.327L160.964 112.297V112.293L160.973 112.268L160.977 112.263L160.985 112.238L160.99 112.23L160.998 112.204L161.002 112.196L161.011 112.175L161.015 112.166L161.024 112.145L161.028 112.132L161.036 112.111L161.041 112.099L161.049 112.082L161.053 112.069L161.062 112.052L161.066 112.039L161.075 112.022L161.079 112.01L161.096 111.976L161.104 111.963L161.113 111.946L161.117 111.934L161.126 111.917L161.13 111.904L161.138 111.887L161.143 111.874L161.151 111.853L161.155 111.845L161.164 111.824L161.168 111.815L161.176 111.794L161.181 111.786L161.193 111.765L161.21 111.731L161.215 111.726L161.227 111.701V111.697L161.24 111.672V111.667L161.253 111.638V111.633L161.266 111.608L161.261 111.676L161.287 111.617L161.3 111.591V111.587L161.312 111.557L161.325 111.532L161.329 111.528L161.346 111.494L161.359 111.473L161.363 111.464L161.372 111.443L161.376 111.435L161.385 111.414L161.389 111.405L161.397 111.384L161.402 111.371L161.41 111.354L161.414 111.342L161.423 111.325L161.427 111.312L161.436 111.295L161.444 111.283L161.453 111.266L161.461 111.253L161.474 111.223L161.482 111.211L161.491 111.194L161.495 111.181L161.503 111.164L161.508 111.151L161.533 111.105L161.537 111.097L161.546 111.075L161.55 111.067L161.576 111.02L161.58 111.012L161.593 110.991L161.597 110.982L161.61 110.961L161.614 110.957L161.627 110.932V110.927L161.639 110.902V110.898L161.652 110.872L161.665 110.843L161.695 110.788V110.784L161.707 110.758L161.712 110.754L161.724 110.729L161.729 110.724L161.741 110.699L161.746 110.695L161.758 110.674L161.763 110.665L161.775 110.644L161.78 110.636L161.788 110.615C162.009 110.344 162.038 109.947 161.86 109.604ZM160.174 94.4893H147.485V124.469H157.244L153.774 123.395C153.312 123.289 152.968 122.884 152.968 122.389V115.776C152.968 115.286 153.312 114.876 153.774 114.77L158.412 113.337C158.59 112.77 158.79 112.212 159.015 111.671C159.24 111.134 159.49 110.601 159.771 110.069L157.503 105.782C157.257 105.384 157.308 104.856 157.652 104.509L160.17 102.002L160.174 94.4893ZM168.99 113.95C170.413 111.743 172.6 110.314 174.99 109.794C177.36 109.278 179.929 109.654 182.137 111.045L182.239 111.109C184.431 112.525 185.845 114.69 186.359 117.049C186.877 119.408 186.499 121.962 185.102 124.164C185.076 124.194 185.055 124.232 185.034 124.266C183.611 126.447 181.437 127.855 179.071 128.367C176.698 128.883 174.133 128.506 171.924 127.115C171.89 127.09 171.857 127.069 171.818 127.048C170.039 125.898 168.773 124.257 168.086 122.423C167.64 121.234 167.432 119.966 167.483 118.694L168.039 119.45C168.374 119.907 169.024 120.008 169.483 119.674C169.941 119.336 170.043 118.694 169.708 118.237L167.716 115.54L167.712 115.535C167.385 115.07 166.739 114.956 166.272 115.286L163.503 117.231C163.036 117.556 162.926 118.199 163.253 118.664C163.58 119.129 164.225 119.239 164.693 118.913L165.431 118.393C165.338 120.013 165.584 121.632 166.153 123.141C167.003 125.399 168.565 127.411 170.752 128.815L170.757 128.819C173.458 130.544 176.604 131.014 179.505 130.384C182.409 129.75 185.072 128.02 186.8 125.331L186.804 125.327C188.537 122.638 189.008 119.505 188.376 116.613C187.739 113.722 185.998 111.071 183.301 109.346H183.297C180.596 107.621 177.449 107.147 174.549 107.781C171.644 108.416 168.981 110.149 167.249 112.838C166.939 113.316 167.079 113.95 167.559 114.263C168.043 114.567 168.684 114.427 168.99 113.95ZM176.022 112.618V119.294C176.022 119.687 176.243 120.025 176.566 120.203L180.388 122.68C180.868 122.989 181.505 122.854 181.815 122.38C182.125 121.902 181.989 121.268 181.513 120.96L178.091 118.74V112.618C178.091 112.051 177.628 111.586 177.054 111.586C176.485 111.591 176.022 112.051 176.022 112.618Z" fill="white"></path></svg> 