<?xml version="1.0" encoding="UTF-8"?> <svg xmlns="http://www.w3.org/2000/svg" width="300" height="186" viewBox="0 0 300 186"><g id="Group_3014" data-name="Group 3014" transform="translate(-67 -2394)"><rect id="Rectangle_1" data-name="Rectangle 1" width="300" height="186" transform="translate(67 2394)" fill="#051c2c"></rect><path id="Path_3225" data-name="Path 3225" d="M125.116,80.835a1.63,1.63,0,0,1,3.259,0v20.951a1.63,1.63,0,0,1-3.259,0ZM104.4,120.921a1.6,1.6,0,0,1,2.281-.14,1.647,1.647,0,0,1,.14,2.3,12.5,12.5,0,0,1-9.358,4.516h0a12.5,12.5,0,0,1-9.358-4.516,1.633,1.633,0,0,1,2.444-2.165,9.312,9.312,0,0,0,6.914,3.422h0a9.44,9.44,0,0,0,6.937-3.422Zm5.727-12.477h-3.678v3.678h3.678Zm-5.284-3.259h6.937a1.619,1.619,0,0,1,1.63,1.63v6.937a1.619,1.619,0,0,1-1.63,1.63h-6.937a1.619,1.619,0,0,1-1.63-1.63v-6.937a1.619,1.619,0,0,1,1.63-1.63Zm-16.365,3.259H84.8v3.678h3.678Zm-5.284-3.259h6.937a1.619,1.619,0,0,1,1.63,1.63v6.937a1.619,1.619,0,0,1-1.63,1.63H83.191a1.619,1.619,0,0,1-1.63-1.63v-6.937a1.619,1.619,0,0,1,1.63-1.63Zm29.052-7.473H82.679a7.67,7.67,0,0,0-7.635,7.635v22.185a7.67,7.67,0,0,0,7.635,7.635h29.564a7.67,7.67,0,0,0,7.635-7.635V105.348a7.64,7.64,0,0,0-7.635-7.635ZM82.7,94.453h29.564a12.425,12.425,0,0,1,1.606.116V54.949H27.182V118.8c0,2.561,2.654,4.307,5.308,4.307h30.5v-11.22a6.393,6.393,0,0,1,6.4-6.378h2.4A10.969,10.969,0,0,1,82.7,94.453Zm34.406,1.141a10.945,10.945,0,0,1,6.052,9.894h2.4a6.408,6.408,0,0,1,6.4,6.378v11.407a6.413,6.413,0,0,1-6.4,6.4h-2.607a10.95,10.95,0,0,1-10.708,8.753H82.679a10.924,10.924,0,0,1-10.685-8.753H69.387a6.424,6.424,0,0,1-5.61-3.306H32.49c-4.446,0-8.59-3.143-8.59-7.566V43.542c.023-4.4,4.167-7.542,8.59-7.542h76.029c4.446,0,8.59,3.143,8.59,7.542Zm6.052,13.153v17.669h2.4a3.159,3.159,0,0,0,3.143-3.143V111.866a3.159,3.159,0,0,0-3.143-3.143h-2.4ZM71.785,126.415V108.746h-2.4a3.159,3.159,0,0,0-3.143,3.143V123.3a3.159,3.159,0,0,0,3.143,3.143h2.4ZM45.34,92.568a1.63,1.63,0,1,1,0-3.259H60.192a1.63,1.63,0,0,1,0,3.259Zm-4.26-9.521H64.405a7.9,7.9,0,1,1,0,15.806H41.08a7.9,7.9,0,0,1,0-15.806Zm23.325,3.259H41.08a4.644,4.644,0,0,0,0,9.288H64.405a4.639,4.639,0,0,0,3.282-7.915,4.552,4.552,0,0,0-3.282-1.373ZM82.772,71.128a1.63,1.63,0,0,1,0-3.259h8.893a1.63,1.63,0,1,1,0,3.259Zm-38.6,0a1.63,1.63,0,1,1,0-3.259H73.717a1.63,1.63,0,1,1,0,3.259Zm-3.1-9.544H99.952a7.9,7.9,0,1,1,0,15.806H41.08a7.9,7.9,0,0,1,0-15.806Zm58.872,3.259H41.08a4.644,4.644,0,0,0,0,9.288H99.952a4.641,4.641,0,0,0,3.282-7.915,4.731,4.731,0,0,0-3.282-1.373ZM34.981,45.358a1.63,1.63,0,1,1,3.259,0v.885a1.63,1.63,0,0,1-3.259,0Zm14.084,0a1.63,1.63,0,1,1,3.259,0v.885a1.63,1.63,0,0,1-3.259,0Zm-7.03,0a1.63,1.63,0,0,1,3.259,0v.885a1.63,1.63,0,0,1-3.259,0ZM27.182,51.69H113.85V43.542c0-2.537-2.654-4.307-5.308-4.307H32.49c-2.654.023-5.308,1.769-5.308,4.307Z" transform="translate(139.1 2400)" fill="#fff" stroke="#051c2c" stroke-width="0.5"></path></g></svg> 