<?xml version="1.0" encoding="UTF-8"?> <svg xmlns="http://www.w3.org/2000/svg" width="300" height="186" viewBox="0 0 300 186" fill="none"><rect width="300" height="186" fill="#051C2C"></rect><path d="M119.109 103.072H119.163C119.24 103.072 119.318 103.072 119.396 103.072C121.721 103.073 124.011 102.506 126.069 101.42C128.127 100.333 129.891 98.7601 131.209 96.8356C132.527 94.9112 133.359 92.6934 133.634 90.3735C133.909 88.0537 133.619 85.7014 132.787 83.5196C132.761 83.4304 132.727 83.3436 132.686 83.2603C131.718 80.854 130.122 78.755 128.065 77.1851C126.009 75.6152 123.569 74.6328 121.003 74.3416C118.437 74.0505 115.84 74.4613 113.487 75.5308C111.134 76.6004 109.112 78.2888 107.635 80.4178C106.158 82.5467 105.281 85.0371 105.096 87.6259C104.911 90.2146 105.425 92.8055 106.584 95.1247C107.743 97.444 109.504 99.4056 111.681 100.802C113.857 102.199 116.369 102.978 118.95 103.059C119.003 103.066 119.056 103.071 119.109 103.072ZM120.656 99.9V85.5119H130.2C130.658 87.0936 130.767 88.757 130.518 90.3854C130.27 92.0137 129.67 93.5678 128.76 94.9385C127.851 96.3093 126.655 97.4637 125.255 98.3207C123.855 99.1778 122.285 99.7168 120.656 99.9ZM108.146 88.6643C108.145 86.2366 108.922 83.8732 110.362 81.9239C111.802 79.9747 113.828 78.5431 116.14 77.8411C118.453 77.1391 120.928 77.2039 123.201 78.0261C125.474 78.8483 127.423 80.384 128.76 82.4061H119.109C118.698 82.4061 118.305 82.57 118.014 82.8617C117.724 83.1534 117.561 83.549 117.561 83.9616V99.8157C114.933 99.3753 112.545 98.013 110.821 95.9707C109.097 93.9285 108.15 91.3384 108.146 88.6604V88.6643ZM203.667 99.1637C201.894 96.3315 198.337 91.6651 194.037 91.341C191.845 86.707 186.041 85.9668 182.445 85.8489V83.9538C182.445 83.5413 182.282 83.1456 181.992 82.8539C181.702 82.5622 181.308 82.3983 180.898 82.3983H174.013L179.737 73.1031C180.964 71.1205 181.785 68.9112 182.15 66.6052C182.515 64.2992 182.418 61.9431 181.864 59.6754C181.318 57.3804 180.322 55.218 178.933 53.3155C177.545 51.4129 175.792 49.8085 173.777 48.5966C173.261 48.2855 172.729 47.9977 172.177 47.7346L171.879 47.5972C169.54 46.5443 167.007 46 164.444 46C161.882 46 159.348 46.5443 157.01 47.5972L156.716 47.7333C156.171 47.9924 155.639 48.2788 155.123 48.5914C153.108 49.8033 151.355 51.4077 149.967 53.3103C148.578 55.2128 147.582 57.3752 147.036 59.6703C146.482 61.9379 146.385 64.294 146.75 66.5999C147.116 68.9059 147.936 71.1151 149.163 73.0979L154.887 82.3931H144.898C144.503 82.2215 144.078 82.1332 143.648 82.1339H140.986C140.551 80.6755 139.969 79.2654 139.25 77.925L141.132 76.0325C141.721 75.4392 142.051 74.6353 142.051 73.7972C142.051 72.9591 141.721 72.1552 141.132 71.5619L136.405 66.8112C135.815 66.2194 135.015 65.8871 134.182 65.8871C133.348 65.8871 132.548 66.2194 131.958 66.8112L130.075 68.7037C128.74 67.982 127.335 67.3983 125.882 66.9615V64.2874C125.881 63.4493 125.549 62.6457 124.96 62.053C124.37 61.4604 123.571 61.127 122.737 61.1259H116.055C115.221 61.127 114.421 61.4604 113.831 62.053C113.242 62.6457 112.91 63.4493 112.909 64.2874V66.9615C111.457 67.3993 110.053 67.9843 108.719 68.7076L106.836 66.8151C106.245 66.2232 105.445 65.8909 104.612 65.8909C103.778 65.8909 102.978 66.2232 102.387 66.8151L97.6606 71.5657C97.0717 72.1591 96.741 72.963 96.741 73.8011C96.741 74.6392 97.0717 75.443 97.6606 76.0364L99.5436 77.9289C98.8242 79.27 98.2421 80.6811 97.8063 82.1404H95.1456C94.3117 82.1414 93.5122 82.4748 92.9225 83.0675C92.3328 83.6602 92.001 84.4637 92 85.3019V92.0202C92.001 92.8584 92.3328 93.6619 92.9225 94.2546C93.5122 94.8473 94.3117 95.1807 95.1456 95.1817H97.8063C98.2421 96.641 98.8242 98.0521 99.5436 99.3932L97.6606 101.286C97.0714 101.879 96.7405 102.683 96.7405 103.521C96.7405 104.359 97.0714 105.163 97.6606 105.756L102.387 110.506C102.978 111.098 103.778 111.43 104.612 111.43C105.446 111.43 106.245 111.098 106.836 110.506L108.719 108.615C110.053 109.338 111.457 109.922 112.909 110.359V113.035C112.91 113.873 113.242 114.676 113.831 115.269C114.421 115.862 115.221 116.195 116.055 116.196H117.565V123.132H116.426C116.016 123.132 115.622 123.296 115.332 123.588C115.041 123.88 114.878 124.275 114.878 124.688V129.095C114.878 129.507 115.041 129.903 115.332 130.195C115.622 130.487 116.016 130.65 116.426 130.65H123.599C124.17 131.945 125.102 133.045 126.282 133.817C127.463 134.589 128.841 135 130.249 135C131.658 135 133.036 134.589 134.216 133.817C135.397 133.045 136.329 131.945 136.899 130.65H139.424C139.995 131.945 140.927 133.045 142.107 133.817C143.288 134.589 144.666 135 146.074 135C147.483 135 148.861 134.589 150.041 133.817C151.222 133.045 152.154 131.945 152.724 130.65H184.829C185.399 131.945 186.332 133.045 187.512 133.817C188.693 134.589 190.071 135 191.479 135C192.888 135 194.266 134.589 195.447 133.817C196.627 133.045 197.559 131.945 198.13 130.65H204.039C204.56 130.65 205.075 130.547 205.556 130.346C206.037 130.145 206.474 129.852 206.841 129.481C207.209 129.111 207.501 128.672 207.7 128.188C207.898 127.705 208.001 127.186 208 126.663V111.097C208 108.09 206.259 103.292 203.667 99.1585V99.1637ZM192.632 101.571H192.761L200.952 101.392L201.389 101.383C202.903 103.862 204.022 106.565 204.703 109.392C200.343 108.521 196.138 107.679 193.918 107.212C193.554 107.136 193.024 107.024 192.659 106.928V106.805C192.69 105.497 192.69 103.017 192.632 101.566V101.571ZM190.25 91.3306H182.445V88.9637C185.297 89.0869 188.434 89.5911 190.25 91.3215V91.3306ZM153.206 126.235H179.358V127.538H153.346C153.339 127.101 153.292 126.665 153.206 126.235ZM150.037 60.4078C150.488 58.5121 151.311 56.726 152.458 55.1546C153.606 53.5832 155.054 52.2583 156.718 51.2577C157.145 50.9985 157.589 50.76 158.026 50.5526L158.284 50.4346C160.223 49.5631 162.323 49.1125 164.447 49.1125C166.572 49.1125 168.672 49.5631 170.611 50.4346L170.869 50.5526C171.318 50.7665 171.761 51.0063 172.187 51.2629C173.851 52.2637 175.299 53.5887 176.446 55.1601C177.593 56.7314 178.416 58.5174 178.867 60.413C179.323 62.2818 179.404 64.2236 179.104 66.1242C178.803 68.0248 178.127 69.8458 177.116 71.4802L164.445 92.0358L151.789 71.475C150.778 69.8406 150.102 68.0196 149.802 66.1191C149.501 64.2186 149.581 62.2768 150.037 60.4078ZM115.997 113.035V107.951L114.815 107.664C112.858 107.189 110.987 106.409 109.269 105.353L108.238 104.717L104.653 108.313C104.642 108.322 104.627 108.327 104.612 108.327C104.597 108.327 104.583 108.322 104.571 108.313L99.8441 103.562C99.8342 103.55 99.8287 103.536 99.8287 103.52C99.8287 103.505 99.8342 103.49 99.8441 103.479L103.422 99.8831L102.787 98.8461C101.736 97.1201 100.961 95.2395 100.489 93.2724L100.204 92.085H95.1456C95.1306 92.0838 95.1165 92.0773 95.1059 92.0666C95.0953 92.0559 95.0888 92.0418 95.0876 92.0267V85.3019C95.0888 85.2868 95.0953 85.2726 95.1059 85.2619C95.1165 85.2513 95.1306 85.2447 95.1456 85.2435H100.204L100.489 84.0562C100.961 82.0892 101.737 80.2085 102.787 78.4824L103.422 77.4454L99.8441 73.8419C99.8387 73.8368 99.8345 73.8305 99.8319 73.8236C99.8292 73.8166 99.8281 73.8092 99.8286 73.8017C99.828 73.7941 99.829 73.7864 99.8317 73.7793C99.8344 73.7721 99.8386 73.7656 99.8441 73.7603L104.571 69.0096C104.582 69.0002 104.597 68.9951 104.612 68.9951C104.626 68.9951 104.641 69.0002 104.652 69.0096L108.23 72.6105L109.262 71.9728C110.979 70.917 112.85 70.1376 114.807 69.6629L115.989 69.3751V64.2874C115.99 64.2724 115.996 64.2582 116.007 64.2475C116.018 64.2368 116.032 64.2303 116.047 64.2291H122.731C122.746 64.2303 122.761 64.2368 122.771 64.2475C122.782 64.2582 122.788 64.2724 122.789 64.2874V69.3699L123.971 69.6564C125.928 70.1307 127.799 70.9101 129.517 71.9663L130.548 72.604L134.136 69.0096C134.148 68.9999 134.163 68.9946 134.178 68.9946C134.193 68.9946 134.207 68.9999 134.219 69.0096L138.946 73.7603C138.951 73.7657 138.955 73.7722 138.957 73.7794C138.96 73.7866 138.961 73.7942 138.96 73.8017C138.961 73.8091 138.96 73.8165 138.957 73.8234C138.955 73.8303 138.951 73.8367 138.946 73.8419L135.368 77.4377L136.001 78.4746C137.052 80.2008 137.828 82.0814 138.301 84.0484L138.586 85.2358H143.644C143.659 85.2369 143.673 85.2435 143.684 85.2542C143.695 85.2649 143.701 85.279 143.702 85.2941V92.0124C143.701 92.0275 143.695 92.0417 143.684 92.0524C143.673 92.0631 143.659 92.0696 143.644 92.0708H138.59L138.305 93.2581C137.832 95.2251 137.056 97.1057 136.005 98.8319L135.372 99.8689L138.948 103.463C138.958 103.475 138.963 103.49 138.963 103.505C138.963 103.52 138.958 103.535 138.948 103.546L134.222 108.297C134.21 108.306 134.195 108.312 134.18 108.312C134.165 108.312 134.151 108.306 134.139 108.297L130.564 104.717L129.532 105.353C127.815 106.41 125.944 107.19 123.986 107.664L122.805 107.951V113.035C122.804 113.05 122.797 113.064 122.787 113.075C122.776 113.085 122.762 113.092 122.747 113.093H116.055C116.04 113.092 116.025 113.085 116.015 113.075C116.004 113.064 115.998 113.05 115.997 113.035ZM120.652 116.196H122.739C123.573 116.194 124.372 115.861 124.961 115.268C125.55 114.676 125.881 113.872 125.882 113.035V110.359C127.334 109.921 128.738 109.337 130.073 108.615L131.956 110.506C132.546 111.098 133.345 111.43 134.179 111.43C135.013 111.43 135.812 111.098 136.402 110.506L141.129 105.756C141.718 105.163 142.049 104.359 142.049 103.521C142.049 102.683 141.718 101.879 141.129 101.286L139.248 99.3945C139.966 98.0532 140.548 96.6422 140.984 95.183H143.646C144.48 95.182 145.279 94.8486 145.869 94.2559C146.458 93.6632 146.79 92.8597 146.791 92.0215V85.5054H156.796L163.135 95.8C163.274 96.024 163.467 96.2087 163.697 96.3367C163.926 96.4647 164.185 96.5319 164.447 96.5319C164.71 96.5319 164.968 96.4647 165.198 96.3367C165.428 96.2087 165.621 96.024 165.76 95.8L172.101 85.5054H179.355V123.132H151.768C151.088 122.269 150.223 121.571 149.236 121.091C148.25 120.611 147.168 120.362 146.072 120.362C144.976 120.362 143.895 120.611 142.908 121.091C141.922 121.571 141.056 122.269 140.376 123.132H135.942C135.262 122.269 134.397 121.571 133.41 121.091C132.424 120.611 131.342 120.362 130.247 120.362C129.151 120.362 128.069 120.611 127.083 121.091C126.097 121.571 125.231 122.269 124.551 123.132H120.652V116.196ZM137.384 126.235H138.932C138.846 126.665 138.799 127.101 138.792 127.538H137.517C137.511 127.101 137.466 126.665 137.384 126.235ZM117.97 126.235H123.114C123.03 126.665 122.983 127.101 122.975 127.538H117.97V126.235ZM130.249 131.887C129.42 131.887 128.61 131.64 127.921 131.178C127.231 130.715 126.694 130.057 126.377 129.288C126.06 128.518 125.976 127.671 126.138 126.854C126.3 126.037 126.699 125.287 127.285 124.698C127.871 124.109 128.618 123.707 129.431 123.545C130.244 123.383 131.086 123.466 131.852 123.785C132.618 124.104 133.272 124.644 133.733 125.337C134.193 126.029 134.438 126.844 134.438 127.677C134.437 128.793 133.995 129.863 133.21 130.652C132.425 131.442 131.36 131.886 130.249 131.887ZM146.073 131.887C145.244 131.888 144.433 131.642 143.743 131.18C143.053 130.717 142.516 130.06 142.198 129.291C141.88 128.521 141.796 127.674 141.957 126.857C142.119 126.039 142.517 125.288 143.103 124.699C143.689 124.11 144.436 123.708 145.249 123.545C146.062 123.382 146.905 123.466 147.671 123.785C148.437 124.103 149.092 124.643 149.552 125.336C150.013 126.029 150.258 126.844 150.258 127.677C150.257 128.792 149.815 129.862 149.031 130.651C148.246 131.44 147.183 131.885 146.073 131.887ZM191.48 131.887C190.651 131.887 189.841 131.64 189.151 131.178C188.462 130.715 187.925 130.057 187.608 129.288C187.29 128.518 187.207 127.671 187.369 126.854C187.53 126.037 187.93 125.287 188.516 124.698C189.102 124.109 189.849 123.707 190.662 123.545C191.474 123.383 192.317 123.466 193.083 123.785C193.849 124.104 194.503 124.644 194.963 125.337C195.424 126.029 195.669 126.844 195.669 127.677C195.668 128.793 195.226 129.863 194.441 130.652C193.655 131.442 192.591 131.886 191.48 131.887ZM204.042 127.538H198.751C198.726 125.616 197.948 123.782 196.587 122.432C195.226 121.082 193.39 120.325 191.478 120.325C189.566 120.325 187.73 121.082 186.369 122.432C185.008 123.782 184.23 125.616 184.205 127.538H182.444V94.4247H193.567C195.243 94.4247 197.288 95.8402 199.284 98.3134L192.697 98.4573C191.422 98.4858 190.652 98.5027 190.028 99.1806C189.802 99.4648 189.64 99.7948 189.553 100.148C189.465 100.501 189.455 100.869 189.522 101.226L189.535 101.467C189.598 102.74 189.601 105.356 189.579 106.751V106.817C189.506 107.272 189.549 107.74 189.706 108.174C189.862 108.608 190.126 108.995 190.473 109.298C191.332 109.816 192.295 110.138 193.292 110.239C195.663 110.736 200.263 111.657 204.912 112.585V126.663C204.909 126.895 204.816 127.116 204.653 127.279C204.49 127.443 204.27 127.536 204.039 127.538H204.042ZM192.213 113.527C192.213 113.731 192.173 113.934 192.095 114.122C192.017 114.311 191.903 114.483 191.759 114.627C191.616 114.772 191.445 114.886 191.257 114.964C191.069 115.042 190.868 115.083 190.665 115.083H188.182C187.792 115.055 187.426 114.879 187.159 114.591C186.892 114.304 186.744 113.925 186.744 113.531C186.744 113.138 186.892 112.759 187.159 112.471C187.426 112.183 187.792 112.007 188.182 111.98H190.669C191.077 111.981 191.469 112.144 191.758 112.434C192.047 112.724 192.211 113.117 192.213 113.527ZM171.074 57.7635C171.074 56.447 170.686 55.1601 169.958 54.0654C169.23 52.9707 168.196 52.1174 166.986 51.6134C165.776 51.1093 164.444 50.9772 163.16 51.2336C161.875 51.4901 160.695 52.1236 159.768 53.0542C158.841 53.9847 158.21 55.1705 157.954 56.4615C157.698 57.7526 157.828 59.091 158.329 60.3076C158.829 61.5242 159.678 62.5643 160.766 63.2964C161.855 64.0286 163.135 64.4199 164.445 64.4209C166.202 64.4203 167.887 63.7188 169.13 62.4706C170.373 61.2224 171.072 59.5294 171.074 57.7635ZM160.914 57.7635C160.914 57.0603 161.121 56.3729 161.51 55.7883C161.899 55.2037 162.451 54.7482 163.098 54.4793C163.744 54.2105 164.456 54.1404 165.142 54.2779C165.828 54.4155 166.458 54.7545 166.952 55.2521C167.447 55.7497 167.783 56.3835 167.919 57.0733C168.055 57.7631 167.984 58.4779 167.716 59.1273C167.447 59.7766 166.993 60.3314 166.411 60.7213C165.829 61.1112 165.145 61.3188 164.445 61.3178C163.508 61.3154 162.611 60.94 161.949 60.2738C161.287 59.6076 160.915 58.7049 160.914 57.7635Z" fill="white"></path></svg> 