<?xml version="1.0" encoding="UTF-8"?> <svg xmlns="http://www.w3.org/2000/svg" width="300" height="186" viewBox="0 0 300 186"><g id="Group_62" data-name="Group 62" transform="translate(-123 -3181)"><g id="Group_22" data-name="Group 22" transform="translate(41 3042)"><rect id="Rectangle_2" data-name="Rectangle 2" width="300" height="186" transform="translate(82 139)" fill="#051c2c"></rect></g><g id="Group_61" data-name="Group 61" transform="translate(22.526 22.148)"><path id="Path_88" data-name="Path 88" d="M38.542,138.127a1.821,1.821,0,0,1-1.366-.63c-6.2-7.156-16.235-20.869-13.823-32.336.189-1.077,2.5-19.429,4.026-31.535a7.554,7.554,0,1,1,14.995,1.853L39.4,99.643a1.821,1.821,0,0,1-3.614-.455L38.76,75.032a3.917,3.917,0,0,0-3.414-4.363,3.908,3.908,0,0,0-4.37,3.405c-.646,5.146-3.869,30.848-4.074,31.82-2.158,10.306,8.378,23.867,13.017,29.22a1.821,1.821,0,0,1-1.366,3.014Z" transform="translate(174.488 3141.865)" fill="#fff" stroke="#051b2c" stroke-width="1.8"></path><path id="Path_89" data-name="Path 89" d="M103.208,235.87a1.821,1.821,0,0,1-1.712-1.2l-1.106-3.043a22.961,22.961,0,0,0-5.67-8.665c-2.677-2.57-6.785-11.38-7.254-12.614l-4.138-10.8a3.678,3.678,0,0,0-4.75-2.119l-.439.168a3.678,3.678,0,0,0-2.119,4.75l5.333,13.921a1.821,1.821,0,1,1-3.4,1.3L72.62,203.661a7.322,7.322,0,0,1,4.215-9.464l.439-.168a7.32,7.32,0,0,1,9.455,4.218l4.138,10.8c.656,1.712,4.513,9.5,6.373,11.292a26.653,26.653,0,0,1,6.571,10.047l1.106,3.045a1.821,1.821,0,0,1-1.712,2.442Z" transform="translate(136.529 3044.122)" fill="#fff" stroke="#051b2c" stroke-width="1.8"></path><path id="Path_90" data-name="Path 90" d="M100.283,382.058H61.631a1.821,1.821,0,0,1-1.821-1.821V365.331a1.821,1.821,0,0,1,1.821-1.821h38.653a1.821,1.821,0,0,1,1.821,1.821v14.906A1.821,1.821,0,0,1,100.283,382.058Zm-36.832-3.642H98.463V367.152H63.452Z" transform="translate(146.046 2912.84)" fill="#fff" stroke="#051b2c" stroke-width="1.8"></path><path id="Path_91" data-name="Path 91" d="M174.851,399.9h-8.72a1.821,1.821,0,1,1,0-3.642h8.72a1.821,1.821,0,1,1,0,3.642Z" transform="translate(65.331 2887.544)" fill="#fff" stroke="#051b2c" stroke-width="1.8"></path><path id="Path_92" data-name="Path 92" d="M407.467,138.131a1.821,1.821,0,0,1-1.366-3.014c4.632-5.353,15.172-18.914,13-29.218-.2-.974-3.428-26.676-4.074-31.817a3.92,3.92,0,0,0-7.782.949l2.986,24.17a1.821,1.821,0,1,1-3.614.455l-2.979-24.174a7.554,7.554,0,1,1,14.995-1.85c1.518,12.1,3.837,30.456,4.026,31.533,2.413,11.467-7.618,25.18-13.811,32.336A1.821,1.821,0,0,1,407.467,138.131Z" transform="translate(-119.477 3141.861)" fill="#fff" stroke="#051b2c" stroke-width="1.8"></path><path id="Path_93" data-name="Path 93" d="M297.151,235.87a1.821,1.821,0,0,1-1.712-2.442l1.106-3.045a26.653,26.653,0,0,1,6.571-10.047c1.862-1.789,5.72-9.58,6.373-11.292l4.138-10.8a7.32,7.32,0,0,1,9.455-4.218l.442.171a7.32,7.32,0,0,1,4.215,9.462l-5.333,13.918a1.821,1.821,0,1,1-3.4-1.3l5.333-13.92a3.678,3.678,0,0,0-2.119-4.75l-.442-.168a3.676,3.676,0,0,0-4.748,2.119l-4.138,10.8c-.469,1.225-4.577,10.044-7.254,12.614a22.962,22.962,0,0,0-5.67,8.665l-1.106,3.043A1.821,1.821,0,0,1,297.151,235.87Z" transform="translate(-35.868 3044.122)" fill="#fff" stroke="#051b2c" stroke-width="1.8"></path><path id="Path_94" data-name="Path 94" d="M306.843,382.058H268.191a1.821,1.821,0,0,1-1.821-1.821V365.331a1.821,1.821,0,0,1,1.821-1.821h38.653a1.821,1.821,0,0,1,1.821,1.821v14.906A1.821,1.821,0,0,1,306.843,382.058Zm-36.832-3.642h35.011V367.152H270.012Z" transform="translate(-13.5 2912.84)" fill="#fff" stroke="#051b2c" stroke-width="1.8"></path><path id="Path_95" data-name="Path 95" d="M303.921,399.9H295.2a1.821,1.821,0,0,1,0-3.642h8.72a1.821,1.821,0,1,1,0,3.642Z" transform="translate(-34.362 2887.544)" fill="#fff" stroke="#051b2c" stroke-width="1.8"></path><path id="Path_96" data-name="Path 96" d="M177.523,120.171a1.82,1.82,0,0,1-.863-.228,41.581,41.581,0,0,1-11.583-9.434,42.961,42.961,0,0,1-8.239-14.838,55.205,55.205,0,0,1-2.383-19.253,1.821,1.821,0,0,1,1.655-1.737c4.8-.435,13.8-1.96,20.257-7.306a1.821,1.821,0,0,1,2.326,0c6.444,5.347,15.45,6.872,20.257,7.306a1.821,1.821,0,0,1,1.655,1.737,55.039,55.039,0,0,1-2.483,19.556,42.813,42.813,0,0,1-8.447,14.89,41.523,41.523,0,0,1-11.287,9.088,1.8,1.8,0,0,1-.865.218ZM158.051,78.148a50.677,50.677,0,0,0,2.256,16.415,39.3,39.3,0,0,0,7.541,13.6,38.238,38.238,0,0,0,9.676,8.1,38.222,38.222,0,0,0,9.393-7.786,39.222,39.222,0,0,0,7.739-13.636A50.447,50.447,0,0,0,197,78.148c-5.843-.683-13.372-2.5-19.472-7.056C171.423,75.637,163.894,77.454,158.051,78.148Z" transform="translate(72.987 3141.896)" fill="#fff" stroke="#051b2c" stroke-width="1.8"></path><text id="_" data-name="$" transform="translate(242.474 3243.852)" fill="#fff" font-size="31" font-family="HelveticaNeue, Helvetica Neue"><tspan x="0" y="0">$</tspan></text></g></g></svg> 