<?xml version="1.0" encoding="UTF-8"?> <svg xmlns="http://www.w3.org/2000/svg" width="300" height="186" viewBox="0 0 300 186"><g id="Group_33" data-name="Group 33" transform="translate(-632 -3781)"><rect id="Rectangle_2" data-name="Rectangle 2" width="300" height="186" transform="translate(632 3781)" fill="#051c2c"></rect><path id="Union_28" data-name="Union 28" d="M75.339,105.8V90.834H62.514V105.8a3.205,3.205,0,0,1-6.411,0V90.834H42.746V105.8a3.207,3.207,0,0,1-6.414,0V90.834H22.975V105.8a3.205,3.205,0,0,1-6.411,0V90.834H3.207A3.207,3.207,0,0,1,0,87.627V26a1.079,1.079,0,0,1,.2-.629l0,0L18.1.874A2.14,2.14,0,0,1,19.829,0H95.11a3.206,3.206,0,0,1,3.207,3.2V87.627a3.207,3.207,0,0,1-3.207,3.207H81.749V105.8a3.205,3.205,0,0,1-6.411,0ZM6.414,27.745V84.42H91.9V6.411H22ZM37.593,65.852a3.209,3.209,0,0,1,0-4.534A15.287,15.287,0,0,1,59.221,61.2a3.205,3.205,0,1,1-4.531,4.534,8.885,8.885,0,0,0-12.569.118,3.2,3.2,0,0,1-4.528,0ZM28.725,54.5a3.209,3.209,0,0,1,0-4.534,28.887,28.887,0,0,1,40.867-.252,3.205,3.205,0,1,1-4.531,4.534,22.481,22.481,0,0,0-31.8.252,3.2,3.2,0,0,1-4.531,0ZM20.173,42.376a3.2,3.2,0,0,1,0-4.531c16.1-16.111,42.057-16.29,57.967-.37a3.2,3.2,0,0,1-4.531,4.531c-13.4-13.4-35.289-13.249-48.9.37a3.2,3.2,0,0,1-4.531,0Z" transform="translate(732.5 3819.5)" fill="#fff" stroke="#051c2c" stroke-width="2.5"></path></g></svg> 