<?xml version="1.0" encoding="UTF-8"?> <svg xmlns="http://www.w3.org/2000/svg" width="300" height="186" viewBox="0 0 300 186"><g id="Group_88" data-name="Group 88" transform="translate(-231 -5338)"><rect id="Rectangle_5" data-name="Rectangle 5" width="300" height="186" transform="translate(231 5338)" fill="#051c2c"></rect><path id="Union_32" data-name="Union 32" d="M80.081,109a8.908,8.908,0,0,1-8.9-8.9V88.979H8.9a8.908,8.908,0,0,1-8.9-8.9V8.9A8.908,8.908,0,0,1,8.9,0H115.673a8.908,8.908,0,0,1,8.9,8.9V20.021a8.908,8.908,0,0,1,8.9,8.9V100.1a8.908,8.908,0,0,1-8.9,8.9ZM76.938,25.775a4.454,4.454,0,0,0-1.3,3.143V100.1a4.455,4.455,0,0,0,4.448,4.449h44.49a4.455,4.455,0,0,0,4.448-4.449V28.918a4.455,4.455,0,0,0-4.449-4.448H113.449a6.68,6.68,0,0,1-6.674,6.673h-8.9A6.678,6.678,0,0,1,91.2,24.47H80.081A4.453,4.453,0,0,0,76.938,25.775ZM5.754,5.754A4.456,4.456,0,0,0,4.449,8.9V80.081A4.455,4.455,0,0,0,8.9,84.53H71.184V28.918a8.908,8.908,0,0,1,8.9-8.9h40.041V8.9a4.455,4.455,0,0,0-4.449-4.449H8.9A4.453,4.453,0,0,0,5.754,5.754Zm92.123,20.94h8.9A2.227,2.227,0,0,0,109,24.47H95.652A2.227,2.227,0,0,0,97.877,26.694Zm0,75.629a2.224,2.224,0,0,1,0-4.448h8.9a2.224,2.224,0,0,1,0,4.448Zm10.263-15.99a6.654,6.654,0,0,1-.955-6.255h-5.269a6.653,6.653,0,1,1-12.168-.819,8.895,8.895,0,0,1-5.218-8.078V48.937H82.306a2.225,2.225,0,0,1,0-4.449h4.449a2.224,2.224,0,0,1,2.225,2.225v6.673h33.367a2.224,2.224,0,0,1,2.225,2.225V71.181a8.892,8.892,0,0,1-5.217,8.078,6.653,6.653,0,0,1-5.459,9.7q-.224.015-.446.015A6.654,6.654,0,0,1,108.14,86.333Zm3.117-4.03a2.192,2.192,0,1,0,2.191-2.225A2.224,2.224,0,0,0,111.257,82.3Zm-17.828,0a2.224,2.224,0,1,0,2.224-2.192A2.224,2.224,0,0,0,93.429,82.3ZM88.979,71.181a4.455,4.455,0,0,0,4.449,4.449h22.244a4.455,4.455,0,0,0,4.449-4.449V57.834H88.979Zm24.889-.651a2.228,2.228,0,0,1-.651-1.574V62.282a2.225,2.225,0,0,1,4.449,0v6.674a2.225,2.225,0,0,1-3.8,1.574Zm-6.673,0a2.224,2.224,0,0,1-.651-1.574V62.282a2.224,2.224,0,0,1,4.448,0v6.674a2.225,2.225,0,0,1-3.8,1.574Zm-93.849.651a2.225,2.225,0,0,1,0-4.449H62.285a2.225,2.225,0,0,1,0,4.449Zm0-8.9a2.225,2.225,0,0,1,0-4.449H62.285a2.225,2.225,0,0,1,0,4.449Zm4.449-8.9a6.68,6.68,0,0,1-6.674-6.674v-17.8A6.68,6.68,0,0,1,17.8,22.242H40.041a6.678,6.678,0,0,1,6.673,6.673v17.8a6.678,6.678,0,0,1-6.673,6.674Zm-2.225-24.47v17.8A2.226,2.226,0,0,0,17.8,48.936H40.041a2.226,2.226,0,0,0,2.225-2.225v-17.8a2.226,2.226,0,0,0-2.225-2.224H17.8A2.226,2.226,0,0,0,15.571,28.915ZM53.388,48.937a2.225,2.225,0,0,1,0-4.449h8.9a2.225,2.225,0,0,1,0,4.449Zm0-8.9a2.225,2.225,0,0,1,0-4.449h8.9a2.225,2.225,0,0,1,0,4.449ZM27.093,12.346a2.218,2.218,0,0,1,3.4-2.805,2.218,2.218,0,1,1-3.4,2.805ZM17.829,11.12a2.192,2.192,0,1,1,2.191,2.224A2.225,2.225,0,0,1,17.829,11.12ZM9.561,12.682a2.232,2.232,0,1,1,1.578.654A2.232,2.232,0,0,1,9.561,12.682Z" transform="translate(314.5 5376.5)" fill="#fff" stroke="#051c2c" stroke-width="1"></path></g></svg> 