<?xml version="1.0" encoding="UTF-8"?> <svg xmlns="http://www.w3.org/2000/svg" width="300" height="186" viewBox="0 0 300 186" fill="none"><rect width="300" height="186" fill="#051C2C"></rect><path d="M150.522 75.7525C157.857 75.7525 163.817 69.8603 163.817 62.6084C163.13 45.2717 138.029 45.2717 137.342 62.6084C137.227 69.8603 143.187 75.7525 150.522 75.7525ZM150.522 51.8438C156.597 51.8438 161.525 56.7162 161.525 62.7217C160.837 76.9989 140.207 76.9989 139.519 62.6084C139.519 56.6029 144.448 51.8438 150.522 51.8438ZM127.027 68.6139H130.236C130.694 69.9736 131.153 71.3333 131.955 72.5798L129.663 74.846C128.746 75.7525 128.746 77.3388 129.663 78.2453L134.82 83.231C135.737 84.1375 137.342 84.1375 138.259 83.231L140.551 80.9648C141.812 81.6447 143.187 82.2112 144.562 82.6645V85.8372C144.562 87.1969 145.708 88.2167 146.969 88.2167H154.19C155.565 88.2167 156.597 87.0836 156.597 85.8372V82.6645C157.972 82.2112 159.347 81.758 160.608 80.9648L162.9 83.231C163.817 84.1375 165.422 84.1375 166.339 83.231L171.382 78.2453C172.299 77.3388 172.299 75.7525 171.382 74.846L169.089 72.5798C169.777 71.3333 170.35 69.9736 170.809 68.6139H174.018C175.393 68.6139 176.425 67.4807 176.425 66.2343V59.0957C176.425 57.736 175.279 56.7162 174.018 56.7162H170.809C170.35 55.3564 169.892 53.9967 169.089 52.7503L171.382 50.484C172.299 49.5776 172.299 47.9912 171.382 47.0847L166.224 41.9857C165.307 41.0792 163.703 41.0792 162.786 41.9857L160.493 44.2519C159.233 43.5721 157.857 43.0055 156.482 42.5523V39.3795C156.482 38.0198 155.336 37 154.075 37H146.855C145.479 37 144.448 38.1331 144.448 39.3795V42.5523C143.072 43.0055 141.697 43.5721 140.436 44.2519L138.144 41.9857C137.227 41.0792 135.623 41.0792 134.706 41.9857L129.548 47.0847C128.631 47.9912 128.631 49.5776 129.548 50.484L131.84 52.7503C131.153 53.9967 130.58 55.3564 130.121 56.7162H126.912C125.537 56.7162 124.505 57.8493 124.505 59.0957V66.2343C124.505 67.4807 125.651 68.6139 127.027 68.6139ZM126.797 59.0957C126.797 58.9824 126.912 58.9824 126.912 58.9824H131.038C131.611 58.9824 132.07 58.6425 132.184 58.0759C132.643 56.2629 133.33 54.6766 134.247 53.0902C134.476 52.637 134.476 52.0704 134.018 51.7305L131.267 48.7844C131.267 48.6711 131.153 48.6711 131.267 48.5578L136.425 43.4587C136.425 43.4587 136.539 43.4587 136.654 43.4587L139.519 46.2915C139.863 46.6315 140.436 46.7448 140.895 46.5182C142.499 45.6117 144.219 44.9318 145.938 44.4785C146.396 44.3652 146.855 43.912 146.855 43.3454V39.3795C146.855 39.2662 146.969 39.2662 146.969 39.2662H154.19C154.304 39.2662 154.304 39.3795 154.304 39.3795V43.4587C154.304 44.0253 154.648 44.4785 155.221 44.5919C157.055 45.0451 158.66 45.725 160.264 46.6315C160.723 46.8581 161.296 46.8581 161.64 46.4048L164.505 43.5721C164.505 43.5721 164.62 43.5721 164.734 43.5721L169.777 48.6711V48.8977L166.912 51.7305C166.568 52.0704 166.453 52.637 166.683 53.0902C167.599 54.6766 168.287 56.3762 168.746 58.0759C168.86 58.5292 169.319 58.9824 169.892 58.9824H174.018C174.132 58.9824 174.132 59.0957 174.132 59.0957V66.2343C174.132 66.3476 174.018 66.3476 174.018 66.3476H169.892C169.319 66.3476 168.86 66.6876 168.746 67.2541C168.287 68.9538 167.599 70.6535 166.683 72.2398C166.453 72.6931 166.453 73.2596 166.912 73.5996L169.777 76.4323V76.659L164.734 81.6447L165.536 82.4378C164.849 81.9846 162.213 79.3784 161.64 78.8119C161.296 78.4719 160.723 78.3586 160.264 78.5853C158.66 79.4917 156.941 80.1716 155.221 80.6249C154.763 80.7382 154.304 81.1914 154.304 81.758V85.8372C154.304 85.9505 154.19 85.9505 154.19 85.9505H146.969C146.855 85.9505 146.855 85.8372 146.855 85.8372V81.758C146.855 81.1914 146.511 80.7382 145.938 80.6249C144.219 80.1716 142.499 79.4917 140.895 78.5853C140.436 78.3586 139.863 78.3586 139.519 78.8119L136.654 81.6447L137.456 82.4378C136.883 82.0979 131.955 77.2255 131.382 76.5457C131.382 76.4323 131.267 76.4323 131.382 76.319L134.247 73.4862C134.591 73.1463 134.706 72.5798 134.476 72.1265C133.56 70.5401 132.872 68.8405 132.413 67.1408C132.299 66.6876 131.84 66.2343 131.267 66.2343H127.141C127.027 66.2343 127.027 66.121 127.027 66.121V59.0957H126.797ZM206.797 108.273C206.453 106.8 205.651 105.553 204.619 104.647C205.995 103.74 206.797 102.154 206.797 100.341C206.912 99.4345 206.224 98.4147 205.307 98.4147C203.702 98.528 200.035 98.0748 198.659 98.9813L195.106 91.956C193.846 89.5765 191.553 88.1034 188.917 88.1034H168.058C165.078 88.1034 162.557 90.143 161.41 92.8625H140.551C140.207 92.8625 139.863 92.8625 139.634 92.9758C138.488 90.143 135.966 88.1034 132.987 88.1034H112.242C109.72 88.1034 107.313 89.5765 106.053 91.956L102.385 98.9813C101.01 97.9615 97.342 98.528 95.7375 98.4147C94.7059 98.4147 94.1329 99.3212 94.2475 100.341C94.2475 102.154 95.1644 103.74 96.4251 104.647C95.3936 105.44 94.5913 106.686 94.2475 108.046C93.4452 110.199 94.8206 115.072 95.1644 117.224V126.856C95.1644 128.556 96.5397 129.915 98.1443 129.915H103.302C104.792 129.915 105.938 128.782 106.167 127.422H121.411V136.601C121.411 138.414 122.901 140 124.62 140H130.465C132.07 140 133.33 138.754 133.674 137.167H171.152C171.382 138.754 172.757 140 174.362 140H180.207C181.926 140 183.416 138.527 183.416 136.601V127.422H194.992C195.221 128.895 196.482 129.915 197.857 129.915H203.015C204.619 129.915 205.995 128.556 205.995 126.856V117.224C206.224 115.072 207.485 110.199 206.797 108.273ZM200.952 100.681H204.505C204.39 102.041 203.359 103.061 202.098 103.061C201.983 103.061 200.722 103.061 200.722 103.061L199.691 101.021C200.035 100.794 200.493 100.681 200.952 100.681ZM168.058 90.3696H188.803C190.522 90.3696 192.012 91.3894 192.929 92.9758C192.929 92.9758 197.055 101.134 197.169 101.134C197.284 101.361 197.972 102.721 198.086 102.947H174.018L171.038 97.1683C169.777 94.6755 167.026 92.8625 164.046 92.8625C164.963 91.3894 166.453 90.3696 168.058 90.3696ZM140.551 95.1287H164.161C166.11 95.1287 167.943 96.2618 168.975 98.1881C170.465 101.134 173.445 106.913 174.935 109.746H129.777C130.465 108.499 131.726 105.893 132.413 104.647C134.591 101.248 135.623 95.3553 140.551 95.1287ZM169.777 115.638C168.402 116.205 167.256 117.451 166.797 118.811C166.797 118.697 166.797 118.697 166.912 118.584C166.797 118.811 166.683 119.151 166.683 119.491C166.683 119.264 166.797 119.037 166.797 118.924C166.683 119.151 166.683 119.377 166.683 119.491H138.029C136.883 114.165 129.663 113.938 128.402 119.264C126.224 118.697 124.276 117.338 122.786 115.525C123.474 113.372 125.651 112.012 127.944 112.125H127.829C128.402 112.125 128.975 112.125 129.548 112.125H160.493C165.766 112.125 171.038 112.125 176.31 112.125C178.717 111.899 181.238 113.145 181.926 115.525C180.321 117.111 178.717 118.584 176.31 119.151C175.852 116.318 172.528 114.618 169.777 115.638ZM174.247 120.51C174.132 124.476 168.975 124.476 168.86 120.51C168.975 116.545 174.132 116.545 174.247 120.51ZM135.852 120.51C135.737 124.476 130.58 124.476 130.465 120.51C130.58 116.545 135.737 116.545 135.852 120.51ZM103.875 101.248C103.875 101.134 108.116 93.0891 108.116 92.9758C108.918 91.2761 110.522 90.3696 112.242 90.3696H132.987C134.935 90.3696 136.654 91.7294 137.456 93.6557C133.789 95.582 132.643 99.6612 130.809 103.061H102.958L103.875 101.248ZM100.093 100.681C100.551 100.681 101.01 100.794 101.353 101.021L100.322 103.061H98.9466C97.6859 103.061 96.769 102.041 96.5397 100.681H100.093ZM103.187 127.649H98.0297C97.2274 127.649 97.4566 126.176 97.342 125.609C98.0297 126.403 98.9466 127.083 100.093 127.196C100.78 127.422 102.958 127.309 103.646 127.309C103.531 127.536 103.416 127.649 103.187 127.649ZM101.124 125.043C99.6343 125.043 98.6028 123.683 98.3735 122.323L97.4566 116.771C97.4566 116.658 97.4566 116.658 97.4566 116.545L96.5397 111.106C97.9151 112.239 99.5197 113.032 101.353 113.485C102.27 118.471 109.032 118.584 110.179 113.712H121.181C120.952 114.165 120.723 114.618 120.608 115.072H119.118C116.482 115.072 114.19 116.431 113.388 118.358L112.012 121.53C111.898 121.87 111.898 122.323 112.127 122.55C112.356 122.89 112.7 123.117 113.044 123.117H121.181L121.525 124.93H101.124V125.043ZM103.416 112.692C103.416 110.879 105.136 109.519 106.626 110.426C108.459 111.559 108.001 115.185 105.594 115.185C104.448 115.185 103.416 114.052 103.416 112.692ZM110.064 112.125C110.179 112.692 110.064 113.259 109.949 113.825C110.179 113.259 110.179 112.692 110.064 112.125ZM120.15 118.131C120.15 118.697 120.494 120.397 120.608 121.077H114.649L115.336 119.377C115.795 118.244 117.285 117.451 119.004 117.451H120.15C120.15 117.678 120.15 117.904 120.15 118.131ZM110.064 111.559C110.064 111.785 110.179 111.899 110.179 112.125C109.606 107.026 102.843 106.46 101.353 111.332C99.5197 110.766 97.8005 109.633 96.6544 108.16C97.2274 106.573 98.6028 105.44 100.093 105.327H129.548C129.09 106.46 127.256 108.839 126.568 109.859C125.193 109.972 123.818 110.539 122.786 111.446H110.064V111.559ZM130.465 137.734H124.62C123.359 137.734 123.818 135.694 123.703 134.901C125.422 137.394 128.631 137.281 131.267 137.167C131.038 137.394 130.809 137.734 130.465 137.734ZM181.009 136.601C181.009 137.167 180.551 137.734 180.092 137.734H174.247C173.903 137.734 173.559 137.507 173.445 137.167C173.559 137.281 174.935 137.167 175.164 137.167C177.342 137.394 179.748 136.827 181.009 134.901V136.601ZM182.155 118.697C181.811 120.964 181.353 123.117 181.009 125.383L179.863 131.728C179.519 133.541 178.144 134.901 176.654 134.901H128.058C126.454 134.901 125.078 133.541 124.734 131.728C124.391 129.575 123.474 124.136 123.015 122.097L122.442 118.697C124.047 120.171 126.11 121.19 128.173 121.644C129.204 127.196 136.769 127.422 137.915 121.87H166.568C166.568 121.304 166.568 120.964 166.568 120.51C166.683 126.856 175.164 127.762 176.425 121.53C178.602 121.077 180.551 120.057 182.155 118.697ZM181.811 111.559C180.665 110.426 179.061 110.086 177.456 109.859L175.164 105.327H200.952C202.442 105.44 203.817 106.573 204.39 108.16C203.129 109.519 201.525 110.879 199.691 111.219C199.576 110.766 199.347 110.199 199.003 109.746C196.826 106.347 191.668 107.48 190.98 111.332C190.98 111.559 181.811 111.559 181.811 111.559ZM197.628 112.692C197.628 115.978 193.273 115.978 193.158 112.692C193.273 109.406 197.513 109.179 197.628 112.692ZM203.588 126.743C203.588 127.196 203.244 127.536 202.9 127.536H197.743C197.513 127.536 197.399 127.422 197.284 127.309C198.086 127.309 200.264 127.422 200.952 127.196C201.983 126.969 202.9 126.403 203.588 125.609V126.743ZM203.702 116.658C203.702 116.771 203.702 116.771 203.702 116.884L202.786 122.437C202.556 124.023 201.41 125.156 200.035 125.156H183.416L183.76 123.343H188.23C189.032 123.343 189.605 122.437 189.261 121.757L187.886 118.584C187.313 117.224 186.052 116.205 184.448 115.638C184.333 115.072 184.104 114.392 183.76 113.938H191.095C192.241 118.924 198.889 118.697 199.92 113.712C201.639 113.259 203.359 112.465 204.734 111.332L203.702 116.658ZM184.104 120.964C184.218 120.397 184.562 118.697 184.562 118.131C185.594 118.697 185.937 120.057 186.396 120.964H184.104ZM192.929 108.613L192.814 108.726C192.814 108.726 192.814 108.726 192.929 108.613ZM97.8005 112.239C98.0297 112.352 98.1443 112.465 98.2589 112.579C98.0297 112.352 97.8005 112.239 97.5712 112.125C97.6859 112.125 97.8005 112.125 97.8005 112.239ZM162.786 127.196C161.869 125.043 159.347 123.57 156.482 123.57H148.23C145.365 123.57 142.843 125.043 141.812 127.196L140.207 130.822C139.863 131.502 140.436 132.408 141.239 132.408H163.13C163.932 132.408 164.505 131.502 164.161 130.822C164.39 130.935 162.786 127.196 162.786 127.196ZM143.187 130.142L144.104 128.102C144.677 126.743 146.396 125.836 148.345 125.836H156.482C158.43 125.836 160.15 126.743 160.723 128.102L161.64 130.142H143.187Z" fill="white"></path></svg> 