<?xml version="1.0" encoding="UTF-8"?> <svg xmlns="http://www.w3.org/2000/svg" width="300" height="186" viewBox="0 0 300 186"><g id="Group_31" data-name="Group 31" transform="translate(-537 -155)"><g id="Group_2" data-name="Group 2" transform="translate(455 16)"><rect id="Rectangle_2" data-name="Rectangle 2" width="300" height="186" transform="translate(82 139)" fill="#051c2c"></rect></g><path id="Path_4" data-name="Path 4" d="M20.813,59.375l6.222-6.049a13.257,13.257,0,0,1,17.488-.62h11.8A10.992,10.992,0,0,1,67.284,63.67v2.489a2.271,2.271,0,0,1-1.386,2.09l9.114,1.807H98.571a10.992,10.992,0,0,1,10.965,10.965V83.51a2.266,2.266,0,0,1-2.267,2.267H38.853l-1.78,1.78,1.2,2.072a2.259,2.259,0,0,1-.833,3.082l-12.4,7.161a2.259,2.259,0,0,1-3.082-.833L3.324,66.779A2.259,2.259,0,0,1,4.156,63.7l12.4-7.161a2.259,2.259,0,0,1,3.082.833l1.169,2.024Zm18.1-20.792a2.267,2.267,0,0,1,0-4.535H52.383a23.685,23.685,0,0,1-.828-6.191A17.437,17.437,0,0,1,73.5,11.016a17.648,17.648,0,0,1,3.073,1.147A17.438,17.438,0,0,1,100.6,22.039l-4.269,1.506a12.943,12.943,0,0,0-15.513-8.157,12.631,12.631,0,0,0-3.113,1.284l-1.125.647-1.125-.647a12.853,12.853,0,0,0-3.1-1.284A13.2,13.2,0,0,0,69,14.953a12.882,12.882,0,0,0-12.9,12.9,19.366,19.366,0,0,0,1.045,6.191H60.2l5.15-11.36a2.265,2.265,0,0,1,4.318.709l1.461,10.5,1.178-4.814a2.267,2.267,0,0,1,2.2-1.727l8.414-.009a2.267,2.267,0,1,1,0,4.535H76.279L72.741,46.355a2.263,2.263,0,0,1-4.459-.137L66.258,31.666l-2.471,5.456a2.266,2.266,0,0,1-2.121,1.461H59.208C62.795,44.832,68.8,50.039,73.481,54.1c1.125.974,2.179,1.887,3.1,2.728.948-.859,2.028-1.8,3.18-2.794l.425-.372,2.958,3.419-.425.372c-1.723,1.492-3.277,2.843-4.535,4.1l-1.6,1.6-1.6-1.6c-1.235-1.235-2.763-2.56-4.459-4.03C65.009,52.737,57.817,46.5,54.075,38.584ZM88.745,27.348h9.464a2.266,2.266,0,0,1,2.267,2.267v6.793h6.793a2.266,2.266,0,0,1,2.267,2.267V48.14a2.266,2.266,0,0,1-2.267,2.267h-6.793V57.2a2.266,2.266,0,0,1-2.267,2.267H88.745A2.266,2.266,0,0,1,86.478,57.2V50.407H79.689a2.266,2.266,0,0,1-2.267-2.267V38.676a2.266,2.266,0,0,1,2.267-2.267h6.789V29.615a2.266,2.266,0,0,1,2.267-2.267Zm7.2,4.535H91.013v6.793a2.266,2.266,0,0,1-2.267,2.267H81.956v4.929h6.789a2.266,2.266,0,0,1,2.267,2.267v6.789h4.929V48.14a2.266,2.266,0,0,1,2.267-2.267H105V40.943H98.209a2.266,2.266,0,0,1-2.267-2.267ZM16.858,61.558l-8.5,4.907L24.728,94.816l8.5-4.907L16.858,61.558ZM34.723,83.474,36.295,81.9a2.268,2.268,0,0,1,1.616-.678H105V81a6.456,6.456,0,0,0-6.43-6.43H74.8l-.434-.044L43.336,68.387a2.267,2.267,0,0,1,.337-4.508H62.741v-.221a6.456,6.456,0,0,0-6.43-6.43H43.668a2.305,2.305,0,0,1-1.55-.62,8.771,8.771,0,0,0-12,0l-6.988,6.8L34.714,83.47Z" transform="translate(630.476 193.081)" fill="#fff" stroke="#051b2c" stroke-width="2"></path></g></svg> 