<?xml version="1.0" encoding="UTF-8"?> <svg xmlns="http://www.w3.org/2000/svg" width="300" height="186" viewBox="0 0 300 186"><g id="Group_2933" data-name="Group 2933" transform="translate(-1191 -2596)"><rect id="Rectangle_65" data-name="Rectangle 65" width="300" height="186" transform="translate(1191 2596)" fill="#051c2c"></rect><g id="Group_2932" data-name="Group 2932" transform="translate(170 -232)"><path id="Path_3055" data-name="Path 3055" d="M174.687,41.893a36.649,36.649,0,0,0-9.337-1.2,38.149,38.149,0,0,0-19.576,5.521c-1.807,1.2-11.445,9.638-11.445,11.545,0-1.907-9.638-10.34-11.445-11.445a37.251,37.251,0,0,0-28.913-4.317C74.9,47.213,64.957,72.714,72.788,90.181c2.61,5.923,8.232,13.754,13.653,17.268,0,0,47.888,31.623,47.888,43.069,0-2.811,2.811-6.726,7.027-11.043a7.2,7.2,0,0,1-.6-2.911v-2.409a61.126,61.126,0,0,0-6.425,7.027c-3.514-4.518-9.838-10.742-21.183-19.576-11.846-9.236-23.892-17.268-24.5-17.569C83.832,100.924,78.813,93.7,76.5,88.476c-3.413-7.63-3.012-17.87,1.1-26.706,3.815-8.132,10.14-13.854,17.368-15.862a31.93,31.93,0,0,1,8.232-1.1,33.172,33.172,0,0,1,17.368,4.919c1.606,1,8.332,7.027,9.638,9.035a4.1,4.1,0,0,0,4.016,3.012,4.216,4.216,0,0,0,4.016-3.012c1.405-2.008,8.132-8.031,9.638-9.035A33.173,33.173,0,0,1,165.251,44.8a32.529,32.529,0,0,1,8.232,1.1c7.228,2.008,13.553,7.831,17.368,15.862,4.116,8.835,4.618,19.075,1.1,26.706a27.723,27.723,0,0,1-2.409,4.417,8.971,8.971,0,0,1,2.911,3.213,60.81,60.81,0,0,0,3.313-5.923c7.931-17.468-2.008-42.968-21.082-48.289Z" transform="translate(1036.901 2825.312)" fill="#fff"></path><path id="Path_3056" data-name="Path 3056" d="M349.765,198.369v15.762a3.742,3.742,0,0,0,3.915,3.915h15.762v16.565H353.681a3.742,3.742,0,0,0-3.915,3.915v15.762H333.2V238.626a3.742,3.742,0,0,0-3.915-3.915H313.423V218.046h15.762a3.742,3.742,0,0,0,3.915-3.915V198.369h16.364m.6-4.116H332.8a3.6,3.6,0,0,0-3.614,3.614v16.264H312.921a3.6,3.6,0,0,0-3.614,3.614v17.268a3.6,3.6,0,0,0,3.614,3.614h16.264V254.89A3.6,3.6,0,0,0,332.8,258.5h17.167a3.6,3.6,0,0,0,3.614-3.614V238.626h16.264a3.6,3.6,0,0,0,3.614-3.614V217.745a3.6,3.6,0,0,0-3.614-3.614H353.68V197.867a3.6,3.6,0,0,0-3.614-3.614Z" transform="translate(852.584 2706.985)" fill="#fff"></path></g></g></svg> 