<?xml version="1.0" encoding="UTF-8"?> <svg xmlns="http://www.w3.org/2000/svg" width="300" height="186" viewBox="0 0 300 186"><g id="Group_3015" data-name="Group 3015" transform="translate(-67 -106)"><rect id="Rectangle_67" data-name="Rectangle 67" width="300" height="186" transform="translate(67 106)" fill="#051c2c"></rect><path id="Path_3226" data-name="Path 3226" d="M104.518,43.083a1.876,1.876,0,0,0,1.326.55,1.857,1.857,0,0,0,1.326-.55,1.876,1.876,0,0,0,.55-1.326,1.857,1.857,0,0,0-.55-1.326,1.876,1.876,0,0,0-1.326-.55,1.857,1.857,0,0,0-1.326.55,1.876,1.876,0,0,0-.55,1.326A1.857,1.857,0,0,0,104.518,43.083ZM86.946,38.674a1.419,1.419,0,1,1,0-2.838h4.09a1.41,1.41,0,0,1,1.012.425l4.076,4.076h5.227a4.755,4.755,0,0,1,1.16-1.913,4.708,4.708,0,1,1-1.16,4.742H95.538a1.418,1.418,0,0,1-1-.416l-4.085-4.085h-3.5Zm18.9-29.823a1.857,1.857,0,0,0-1.326.55,1.876,1.876,0,0,0-.55,1.326,1.857,1.857,0,0,0,.55,1.326,1.876,1.876,0,0,0,1.326.55,1.857,1.857,0,0,0,1.326-.55,1.876,1.876,0,0,0,.55-1.326,1.857,1.857,0,0,0-.55-1.326A1.876,1.876,0,0,0,105.844,8.851Zm-18.9,7.787a1.419,1.419,0,1,1,0-2.838h3.5l4.085-4.085a1.41,1.41,0,0,1,1-.416h5.814a4.7,4.7,0,1,1,1.16,4.742,4.674,4.674,0,0,1-1.16-1.913H96.125L92.048,16.2a1.41,1.41,0,0,1-1.012.425h-4.09Zm9.336,6.1a4.708,4.708,0,1,1-1.16,4.742H86.951a1.419,1.419,0,1,1,0-2.838h8.171a4.755,4.755,0,0,1,1.16-1.913Zm3.328,1.456a1.876,1.876,0,0,0-1.816,1.41,1.4,1.4,0,0,1,0,.924,1.875,1.875,0,1,0,1.816-2.343ZM65.6,21.694a6.427,6.427,0,1,0,1.881,4.543A6.4,6.4,0,0,0,65.6,21.694Zm-4.543-4.719a9.262,9.262,0,1,1-6.549,2.713,9.232,9.232,0,0,1,6.549-2.713Zm-37.467,38.1H8.647A7.51,7.51,0,0,0,10.736,59a7.613,7.613,0,0,0,12.857-3.928Zm18.047,0H26.695A7.51,7.51,0,0,0,28.784,59a7.613,7.613,0,0,0,12.857-3.928Zm18.043,0H44.737A7.51,7.51,0,0,0,46.826,59a7.613,7.613,0,0,0,12.857-3.928Zm18.047,0H62.785A7.51,7.51,0,0,0,64.874,59a7.613,7.613,0,0,0,12.857-3.928Zm-4.982-14.5-1.091,1.091-1.779-1.779A1.416,1.416,0,0,0,68.1,39.7c-.384.2-.795.393-1.229.573a14.044,14.044,0,0,1-1.391.5,1.411,1.411,0,0,0-1,1.349h0V44.64H57.641V42.126a1.414,1.414,0,0,0-1.123-1.387c-.416-.129-.841-.287-1.271-.462-.476-.2-.924-.407-1.34-.629a1.41,1.41,0,0,0-1.664.25l0,0-1.779,1.779-4.834-4.834L47.4,35.06a1.416,1.416,0,0,0,.185-1.775c-.2-.384-.393-.795-.573-1.229a14.045,14.045,0,0,1-.5-1.391,1.411,1.411,0,0,0-1.349-1v0H42.654V22.822h2.514A1.414,1.414,0,0,0,46.554,21.7c.129-.416.287-.841.467-1.271.2-.476.407-.924.629-1.34a1.41,1.41,0,0,0-.25-1.664l0,0L45.625,15.64l4.834-4.834,1.779,1.779a1.416,1.416,0,0,0,1.775.185c.384-.2.795-.393,1.229-.573a14.045,14.045,0,0,1,1.391-.5,1.411,1.411,0,0,0,1-1.349h0V7.834h6.835v2.514A1.414,1.414,0,0,0,65.6,11.735c.416.129.841.287,1.271.467.476.2.924.407,1.34.629a1.41,1.41,0,0,0,1.664-.25l0,0,1.779-1.779,4.834,4.834-1.779,1.779a1.416,1.416,0,0,0-.185,1.775c.2.384.393.795.573,1.229a14.043,14.043,0,0,1,.5,1.391,1.411,1.411,0,0,0,1.349,1v0h2.514v6.835H76.95a1.414,1.414,0,0,0-1.386,1.123c-.129.416-.287.841-.467,1.271-.2.476-.407.924-.629,1.34a1.41,1.41,0,0,0,.25,1.664l0,0,1.779,1.779-3.739,3.739ZM29.99,38.849,27.268,52.242h14.5V38.849H29.985Zm-5.6,13.393,2.722-13.393H15.4L9.3,52.242h15.09Zm36.635-4.765.966,4.765h15.09l-3.757-8.259a2.7,2.7,0,0,1-3.572-.217l-1.155-1.155c-.213.1-.425.189-.633.277s-.425.171-.647.254v1.636a2.687,2.687,0,0,1-.79,1.9l0,0,0,0a2.69,2.69,0,0,1-1.909.79Zm-1.913,4.765-.966-4.765h-.633a2.7,2.7,0,0,1-2.7-2.7V43.143c-.222-.079-.434-.166-.647-.254s-.421-.18-.633-.277l-1.155,1.155a1.259,1.259,0,0,1-.116.106,2.7,2.7,0,0,1-3.7-.106L44.613,39.82V52.238h14.5Zm17.9,51.129H9.359v5.278H77.015ZM9.346,100.538h2.339V63.071a10.427,10.427,0,0,1-6.008-9.377,1.22,1.22,0,0,1,.023-.287l0-.028v0a1.351,1.351,0,0,1,.116-.333l7.358-16.166a1.416,1.416,0,0,1,1.3-.864H42.866a2.649,2.649,0,0,1,.661-1.081l0,0,0,0,1.155-1.155c-.1-.213-.189-.425-.277-.633s-.171-.425-.254-.647H42.515a2.687,2.687,0,0,1-1.9-.79l0,0,0,0a2.69,2.69,0,0,1-.79-1.909v-7.1a2.7,2.7,0,0,1,2.7-2.7h1.636c.083-.222.166-.434.254-.647s.18-.421.277-.633l-1.155-1.155a2.7,2.7,0,0,1,0-3.817l5.024-5.024a2.7,2.7,0,0,1,3.817,0l1.155,1.155c.213-.1.425-.189.633-.277s.425-.171.647-.254V7.7a2.7,2.7,0,0,1,.79-1.9l.009-.009A2.7,2.7,0,0,1,57.5,5h7.1a2.709,2.709,0,0,1,1.909.79c.037.037.069.074.1.111a2.68,2.68,0,0,1,.693,1.8V9.331c.222.079.434.166.647.254s.421.18.633.277l1.155-1.155a2.695,2.695,0,0,1,3.813,0l0,0,0,0,5.024,5.024a2.695,2.695,0,0,1,0,3.813l0,0L77.44,18.7c.1.213.189.425.277.633s.171.425.254.647h1.636a2.709,2.709,0,0,1,1.909.79c.037.037.069.074.1.111a2.68,2.68,0,0,1,.693,1.8v7.1a2.7,2.7,0,0,1-2.7,2.7H77.977c-.079.222-.166.434-.254.647s-.18.421-.277.633L78.6,34.921a2.7,2.7,0,0,1,0,3.817l-3.12,3.12,5.088,11.175v0h0l.009.023,0,.009.014.028.009.009.009.023v0a.267.267,0,0,1,.023.065l.009.028,0,0v0l.009.028c0,.023.014.046.018.069v0l0,.009,0,.018v.009l0,0,0,.028v0a.357.357,0,0,1,.009.069v.014l0,.028,0,.032v0l0,.032v.079a10.318,10.318,0,0,1-3.064,7.348,10.434,10.434,0,0,1-2.944,2.061v37.467h2.339a2.816,2.816,0,0,1,1.992.827,1.211,1.211,0,0,1,.1.116,2.8,2.8,0,0,1,.726,1.881v5.306a2.824,2.824,0,0,1-2.819,2.819l-67.71-.014a2.824,2.824,0,0,1-2.819-2.819v-5.306a2.824,2.824,0,0,1,2.819-2.819Zm25.553,0V75.85h-11.9v24.688Zm-14.738,0H14.523V63.931a10.719,10.719,0,0,0,1.6.12A10.425,10.425,0,0,0,23.5,61.006a10.219,10.219,0,0,0,1.645-2.126,10.677,10.677,0,0,0,1.645,2.126,10.455,10.455,0,0,0,14.752,0,10.219,10.219,0,0,0,1.645-2.126,10.677,10.677,0,0,0,1.645,2.126,10.455,10.455,0,0,0,14.752,0,10.219,10.219,0,0,0,1.645-2.126,10.677,10.677,0,0,0,1.645,2.126,10.425,10.425,0,0,0,7.376,3.046,10.72,10.72,0,0,0,1.6-.12v36.607H37.727V74.431a1.419,1.419,0,0,0-1.419-1.419H21.566a1.419,1.419,0,0,0-1.419,1.419v26.107ZM61.293,76.131H47.84v8.661H61.293ZM46.426,73.3a1.419,1.419,0,0,0-1.419,1.419V86.211a1.419,1.419,0,0,0,1.419,1.419H62.713a1.419,1.419,0,0,0,1.419-1.419V74.717A1.419,1.419,0,0,0,62.713,73.3Z" transform="translate(159.325 141.004)" fill="#fff" fill-rule="evenodd"></path></g></svg> 