<svg xmlns="http://www.w3.org/2000/svg" xmlns:xlink="http://www.w3.org/1999/xlink" width="470" zoomAndPan="magnify" viewBox="0 0 352.5 104.999996" height="140" preserveAspectRatio="xMidYMid meet" version="1.0"><defs><g/><clipPath id="920e07ceb1"><path d="M 0 0.0742188 L 352 0.0742188 L 352 104.925781 L 0 104.925781 Z M 0 0.0742188 " clip-rule="nonzero"/></clipPath><clipPath id="96a2f99dc4"><path d="M 190.222656 16.300781 L 348.984375 16.300781 L 348.984375 77.144531 L 190.222656 77.144531 Z M 190.222656 16.300781 " clip-rule="nonzero"/></clipPath><clipPath id="e9bdb8b1f1"><path d="M 230.140625 16.300781 L 345.019531 16.300781 C 346.398438 16.300781 347.671875 17.042969 348.355469 18.242188 C 349.039062 19.441406 349.027344 20.914062 348.324219 22.101562 L 319.164062 71.34375 C 317.035156 74.941406 313.167969 77.144531 308.988281 77.144531 L 194.113281 77.144531 C 192.730469 77.144531 191.457031 76.40625 190.773438 75.207031 C 190.089844 74.007812 190.101562 72.53125 190.804688 71.34375 L 219.964844 22.101562 C 222.09375 18.507812 225.964844 16.300781 230.140625 16.300781 Z M 230.140625 16.300781 " clip-rule="nonzero"/></clipPath></defs><g clip-path="url(#920e07ceb1)"><path fill="#ffffff" d="M 0 0.0742188 L 352 0.0742188 L 352 104.925781 L 0 104.925781 Z M 0 0.0742188 " fill-opacity="1" fill-rule="nonzero"/></g><g clip-path="url(#96a2f99dc4)"><g clip-path="url(#e9bdb8b1f1)"><path fill="#032022" d="M 187.371094 16.300781 L 351.835938 16.300781 L 351.835938 77.144531 L 187.371094 77.144531 Z M 187.371094 16.300781 " fill-opacity="1" fill-rule="nonzero"/></g></g><g fill="#032022" fill-opacity="1"><g transform="translate(12.006546, 66.979229)"><g><path d="M 42.875 0 L 34.84375 0 L 34.796875 -23.25 L 26.21875 -3.578125 L 20.28125 -3.578125 L 11.703125 -23.25 L 11.703125 0 L 3.578125 0 L 3.578125 -35.8125 L 13.546875 -35.8125 L 23.25 -14.515625 L 32.953125 -35.8125 L 42.875 -35.8125 Z M 42.875 0 "/></g></g></g><g fill="#032022" fill-opacity="1"><g transform="translate(55.581729, 66.979229)"><g><path d="M 15.890625 -27.953125 C 19.671875 -27.953125 22.609375 -27.070312 24.703125 -25.3125 C 26.796875 -23.5625 27.859375 -21.117188 27.890625 -17.984375 L 27.890625 0 L 19.265625 0 L 19.265625 -3.171875 C 17.453125 -0.785156 14.640625 0.40625 10.828125 0.40625 C 7.929688 0.40625 5.628906 -0.390625 3.921875 -1.984375 C 2.222656 -3.585938 1.375 -5.664062 1.375 -8.21875 C 1.375 -10.84375 2.285156 -12.878906 4.109375 -14.328125 C 5.929688 -15.773438 8.546875 -16.515625 11.953125 -16.546875 L 19.21875 -16.546875 L 19.21875 -16.96875 C 19.21875 -18.320312 18.765625 -19.382812 17.859375 -20.15625 C 16.953125 -20.925781 15.613281 -21.3125 13.84375 -21.3125 C 11.351562 -21.3125 8.613281 -20.539062 5.625 -19 L 3.109375 -24.828125 C 7.578125 -26.910156 11.835938 -27.953125 15.890625 -27.953125 Z M 13.546875 -5.5625 C 14.941406 -5.5625 16.164062 -5.910156 17.21875 -6.609375 C 18.269531 -7.316406 18.9375 -8.226562 19.21875 -9.34375 L 19.21875 -11.796875 L 13.640625 -11.796875 C 10.984375 -11.796875 9.65625 -10.8125 9.65625 -8.84375 C 9.65625 -7.820312 9.992188 -7.019531 10.671875 -6.4375 C 11.359375 -5.851562 12.316406 -5.5625 13.546875 -5.5625 Z M 13.546875 -5.5625 "/></g></g></g><g fill="#032022" fill-opacity="1"><g transform="translate(83.320547, 66.979229)"><g><path d="M 29.84375 -27.546875 L 29.84375 -2.5 C 29.84375 1.382812 28.46875 4.484375 25.71875 6.796875 C 22.976562 9.109375 19.378906 10.265625 14.921875 10.265625 C 10.359375 10.265625 6.269531 9.054688 2.65625 6.640625 L 5.71875 0.671875 C 8.375 2.503906 11.21875 3.421875 14.25 3.421875 C 16.363281 3.421875 18.023438 2.910156 19.234375 1.890625 C 20.441406 0.867188 21.046875 -0.507812 21.046875 -2.25 L 21.046875 -5.15625 C 19.171875 -2.707031 16.53125 -1.484375 13.125 -1.484375 C 9.625 -1.484375 6.773438 -2.707031 4.578125 -5.15625 C 2.378906 -7.613281 1.28125 -10.832031 1.28125 -14.8125 C 1.28125 -18.695312 2.351562 -21.835938 4.5 -24.234375 C 6.644531 -26.640625 9.453125 -27.84375 12.921875 -27.84375 C 16.429688 -27.875 19.140625 -26.648438 21.046875 -24.171875 L 21.046875 -27.546875 Z M 15.328125 -7.875 C 17.035156 -7.875 18.414062 -8.492188 19.46875 -9.734375 C 20.519531 -10.972656 21.046875 -12.582031 21.046875 -14.5625 C 21.046875 -16.570312 20.519531 -18.195312 19.46875 -19.4375 C 18.414062 -20.6875 17.035156 -21.3125 15.328125 -21.3125 C 13.585938 -21.3125 12.179688 -20.6875 11.109375 -19.4375 C 10.035156 -18.195312 9.5 -16.570312 9.5 -14.5625 C 9.5 -12.582031 10.035156 -10.972656 11.109375 -9.734375 C 12.179688 -8.492188 13.585938 -7.875 15.328125 -7.875 Z M 15.328125 -7.875 "/></g></g></g><g fill="#032022" fill-opacity="1"><g transform="translate(113.460359, 66.979229)"><g><path d="M 4.625 -38.796875 C 5.488281 -39.671875 6.601562 -40.109375 7.96875 -40.109375 C 9.332031 -40.109375 10.445312 -39.671875 11.3125 -38.796875 C 12.1875 -37.929688 12.625 -36.816406 12.625 -35.453125 C 12.625 -34.097656 12.1875 -32.976562 11.3125 -32.09375 C 10.445312 -31.207031 9.332031 -30.765625 7.96875 -30.765625 C 6.601562 -30.765625 5.488281 -31.207031 4.625 -32.09375 C 3.757812 -32.976562 3.328125 -34.097656 3.328125 -35.453125 C 3.328125 -36.816406 3.757812 -37.929688 4.625 -38.796875 Z M 12.3125 0 L 3.53125 0 L 3.53125 -27.546875 L 12.3125 -27.546875 Z M 12.3125 0 "/></g></g></g><g fill="#032022" fill-opacity="1"><g transform="translate(126.435594, 66.979229)"><g><path d="M 15.53125 -27.84375 C 18.257812 -27.84375 20.6875 -27.304688 22.8125 -26.234375 C 24.9375 -25.160156 26.597656 -23.632812 27.796875 -21.65625 L 21.453125 -17.828125 C 20.097656 -19.734375 18.242188 -20.6875 15.890625 -20.6875 C 14.179688 -20.6875 12.789062 -20.046875 11.71875 -18.765625 C 10.644531 -17.492188 10.109375 -15.820312 10.109375 -13.75 C 10.109375 -11.632812 10.632812 -9.9375 11.6875 -8.65625 C 12.75 -7.382812 14.148438 -6.75 15.890625 -6.75 C 18.472656 -6.75 20.347656 -7.785156 21.515625 -9.859375 L 27.953125 -6.078125 C 26.828125 -4.035156 25.179688 -2.457031 23.015625 -1.34375 C 20.847656 -0.238281 18.320312 0.3125 15.4375 0.3125 C 11.175781 0.3125 7.738281 -0.972656 5.125 -3.546875 C 2.519531 -6.117188 1.21875 -9.5 1.21875 -13.6875 C 1.21875 -17.914062 2.535156 -21.332031 5.171875 -23.9375 C 7.816406 -26.539062 11.269531 -27.84375 15.53125 -27.84375 Z M 15.53125 -27.84375 "/></g></g></g><g fill="#032022" fill-opacity="1"><g transform="translate(152.233178, 66.979229)"><g><path d="M 15.890625 -27.953125 C 19.671875 -27.953125 22.609375 -27.070312 24.703125 -25.3125 C 26.796875 -23.5625 27.859375 -21.117188 27.890625 -17.984375 L 27.890625 0 L 19.265625 0 L 19.265625 -3.171875 C 17.453125 -0.785156 14.640625 0.40625 10.828125 0.40625 C 7.929688 0.40625 5.628906 -0.390625 3.921875 -1.984375 C 2.222656 -3.585938 1.375 -5.664062 1.375 -8.21875 C 1.375 -10.84375 2.285156 -12.878906 4.109375 -14.328125 C 5.929688 -15.773438 8.546875 -16.515625 11.953125 -16.546875 L 19.21875 -16.546875 L 19.21875 -16.96875 C 19.21875 -18.320312 18.765625 -19.382812 17.859375 -20.15625 C 16.953125 -20.925781 15.613281 -21.3125 13.84375 -21.3125 C 11.351562 -21.3125 8.613281 -20.539062 5.625 -19 L 3.109375 -24.828125 C 7.578125 -26.910156 11.835938 -27.953125 15.890625 -27.953125 Z M 13.546875 -5.5625 C 14.941406 -5.5625 16.164062 -5.910156 17.21875 -6.609375 C 18.269531 -7.316406 18.9375 -8.226562 19.21875 -9.34375 L 19.21875 -11.796875 L 13.640625 -11.796875 C 10.984375 -11.796875 9.65625 -10.8125 9.65625 -8.84375 C 9.65625 -7.820312 9.992188 -7.019531 10.671875 -6.4375 C 11.359375 -5.851562 12.316406 -5.5625 13.546875 -5.5625 Z M 13.546875 -5.5625 "/></g></g></g><g fill="#032022" fill-opacity="1"><g transform="translate(179.971995, 66.979229)"><g><path d="M 12.625 0 L 3.78125 0 L 3.78125 -37.90625 L 12.625 -37.90625 Z M 12.625 0 "/></g></g></g><g fill="#032022" fill-opacity="1"><g transform="translate(193.465781, 66.979229)"><g/></g></g><g fill="#ffffff" fill-opacity="1"><g transform="translate(219.631772, 66.390113)"><g><path d="M 3.78125 -37.828125 L 20.265625 -37.828125 C 25.097656 -37.828125 28.847656 -36.679688 31.515625 -34.390625 C 34.179688 -32.109375 35.515625 -28.859375 35.515625 -24.640625 C 35.515625 -20.210938 34.179688 -16.769531 31.515625 -14.3125 C 28.847656 -11.863281 25.097656 -10.640625 20.265625 -10.640625 L 13.40625 -10.640625 L 13.40625 0 L 3.78125 0 Z M 13.40625 -30.265625 L 13.40625 -18.21875 L 19.78125 -18.21875 C 21.90625 -18.21875 23.539062 -18.738281 24.6875 -19.78125 C 25.84375 -20.820312 26.421875 -22.335938 26.421875 -24.328125 C 26.421875 -26.265625 25.84375 -27.738281 24.6875 -28.75 C 23.539062 -29.757812 21.90625 -30.265625 19.78125 -30.265625 Z M 13.40625 -30.265625 "/></g></g></g><g fill="#ffffff" fill-opacity="1"><g transform="translate(253.301772, 66.390113)"><g><path d="M 3.78125 -37.828125 L 20.046875 -37.828125 C 25.992188 -37.828125 30.832031 -36.078125 34.5625 -32.578125 C 38.289062 -29.085938 40.15625 -24.535156 40.15625 -18.921875 C 40.15625 -13.335938 38.265625 -8.785156 34.484375 -5.265625 C 30.703125 -1.753906 25.765625 0 19.671875 0 L 3.78125 0 Z M 13.40625 -30.15625 L 13.40625 -7.671875 L 20.265625 -7.671875 C 23.222656 -7.671875 25.644531 -8.707031 27.53125 -10.78125 C 29.425781 -12.851562 30.375 -15.546875 30.375 -18.859375 C 30.375 -22.171875 29.378906 -24.878906 27.390625 -26.984375 C 25.410156 -29.097656 22.890625 -30.15625 19.828125 -30.15625 Z M 13.40625 -30.15625 "/></g></g></g><g fill="#ffffff" fill-opacity="1"><g transform="translate(291.673743, 66.390113)"><g><path d="M 31.828125 -30.265625 L 13.40625 -30.265625 L 13.40625 -21.515625 L 30.375 -21.515625 L 30.375 -13.9375 L 13.40625 -13.9375 L 13.40625 0 L 3.78125 0 L 3.78125 -37.828125 L 31.828125 -37.828125 Z M 31.828125 -30.265625 "/></g></g></g></svg>