<?xml version="1.0" encoding="UTF-8"?> <svg xmlns="http://www.w3.org/2000/svg" width="300" height="186" viewBox="0 0 300 186"><g id="Group_2947" data-name="Group 2947" transform="translate(-51 -3367)"><rect id="Rectangle_67" data-name="Rectangle 67" width="300" height="186" transform="translate(51 3367)" fill="#051c2c"></rect><g id="Group_2946" data-name="Group 2946" transform="translate(132.5 3396.1)"><path id="Path_3134" data-name="Path 3134" d="M82.768,13.9C64.5,13.9,49.7,24.831,49.7,38.252c0,6.918,3.874,13.283,10.654,17.987a30.369,30.369,0,0,1-3.321,4.843,5,5,0,0,0-.277,6.226,5.06,5.06,0,0,0,4.151,2.214,8.1,8.1,0,0,0,1.8-.277c4.289-1.522,9.547-3.874,15.635-6.78,1.522.138,2.906.277,4.428.277,18.264,0,33.068-10.931,33.068-24.352S101.032,13.9,82.768,13.9Zm0,43.307c-1.522,0-3.182-.138-4.7-.277a2.979,2.979,0,0,0-1.522.277c-6.226,3.044-11.484,5.4-15.635,7.195a28.1,28.1,0,0,0,5.119-8.44,2.708,2.708,0,0,0-1.245-3.182c-6.365-3.6-9.962-8.993-9.962-14.666,0-10.515,12.453-19.094,27.811-19.094s27.811,8.578,27.811,19.094S98.126,57.207,82.768,57.207Z" transform="translate(18.107)" fill="#fff" stroke="#051c2c" stroke-width="1"></path><path id="Path_3135" data-name="Path 3135" d="M75,66.1H71.4V63.33A12.194,12.194,0,0,0,59.228,51.154H44.7V43.129a2.629,2.629,0,0,0-5.258,0v8.025H24.915A12.194,12.194,0,0,0,12.739,63.33V66.1h-3.6A6.734,6.734,0,0,0,2.5,72.738v9.27A6.734,6.734,0,0,0,9.141,88.65h3.6v2.767a12.106,12.106,0,0,0,12.176,12.176H59.228A12.194,12.194,0,0,0,71.4,91.417V88.65H75a6.734,6.734,0,0,0,6.641-6.641v-9.27A6.643,6.643,0,0,0,75,66.1Zm-62.263,17.3h-3.6a1.387,1.387,0,0,1-1.384-1.384v-9.27a1.307,1.307,0,0,1,1.384-1.384h3.6Zm53.407,8.025a6.851,6.851,0,0,1-6.918,6.918H24.915A6.851,6.851,0,0,1,18,91.417V63.191a6.851,6.851,0,0,1,6.918-6.918H59.228a6.851,6.851,0,0,1,6.918,6.918Zm10.239-9.409A1.387,1.387,0,0,1,75,83.392H71.4V71.355H75a1.387,1.387,0,0,1,1.384,1.384Z" transform="translate(0 10.204)" fill="#fff" stroke="#051c2c" stroke-width="1"></path><circle id="Ellipse_16" data-name="Ellipse 16" cx="5.534" cy="5.534" r="5.534" transform="translate(26.021 74.641)" fill="#fff" stroke="#051c2c" stroke-width="1"></circle><circle id="Ellipse_17" data-name="Ellipse 17" cx="5.534" cy="5.534" r="5.534" transform="translate(46.914 74.641)" fill="#fff" stroke="#051c2c" stroke-width="1"></circle><path id="Path_3136" data-name="Path 3136" d="M46.019,69.783a2.651,2.651,0,0,0-3.459,1.245c-1.107,2.352-4.289,4.012-7.887,4.012s-6.78-1.66-7.887-4.012a2.6,2.6,0,1,0-4.7,2.214C24.02,77.531,29.139,80.3,34.673,80.3c5.673,0,10.654-2.906,12.591-7.056A2.535,2.535,0,0,0,46.019,69.783Z" transform="translate(7.398 21.323)" fill="#fff" stroke="#051c2c" stroke-width="1"></path><circle id="Ellipse_18" data-name="Ellipse 18" cx="5.396" cy="5.396" r="5.396" transform="translate(80.397 32.717)" fill="#fff" stroke="#051c2c" stroke-width="1"></circle><circle id="Ellipse_19" data-name="Ellipse 19" cx="5.396" cy="5.396" r="5.396" transform="translate(95.479 32.717)" fill="#fff" stroke="#051c2c" stroke-width="1"></circle><circle id="Ellipse_20" data-name="Ellipse 20" cx="5.396" cy="5.396" r="5.396" transform="translate(110.699 32.717)" fill="#fff" stroke="#051c2c" stroke-width="1"></circle></g></g></svg> 