<?xml version="1.0" encoding="utf-8"?>
<!-- Generator: Adobe Illustrator 26.2.1, SVG Export Plug-In . SVG Version: 6.00 Build 0)  -->
<svg version="1.1" id="Layer_1" xmlns="http://www.w3.org/2000/svg" xmlns:xlink="http://www.w3.org/1999/xlink" x="0px" y="0px"
	 viewBox="0 0 500 500" style="enable-background:new 0 0 500 500;" xml:space="preserve">
<style type="text/css">
	.st0{fill:#FF5C35;}
</style>
<path class="st0" d="M309,207v-30c7.9-3.7,13.4-11.6,13.4-20.8v-0.8c0-12.6-10.5-23.2-23.2-23.2h-0.8c-12.6,0-23.2,10.5-23.2,23.2
	v0.8c0,9.2,5.5,17.1,13.4,20.8v30c-11.6,1.8-22.4,6.6-31.1,13.7L175,156.4c0.6-2.1,1-4.2,1-6.6c0-14.5-11.6-26.1-26.1-26.1
	S124,135.3,124,149.8s11.6,26.1,26.1,26.1c4.7,0,8.9-1.3,12.9-3.4l81.4,63.2c-6.8,10.5-11.1,22.9-11.1,36.4
	c0,13.9,4.5,27.1,11.8,37.9l-24.7,24.7c-1.8-0.6-4-1-6.1-1c-11.8,0-21.3,9.5-21.3,21.3s9.5,21.3,21.3,21.3s21.3-9.5,21.3-21.3
	c0-2.1-0.6-4.2-1-6.1l24.5-24.5c11.1,8.4,25,13.7,40,13.7c36.4,0,66.1-29.5,66.1-66.1C364.8,239.1,340.6,211.9,309,207z M299,305.9
	c-18.7,0-33.7-15.3-33.7-33.7c0-18.7,15.3-33.7,33.7-33.7c18.7,0,33.7,15.3,33.7,33.7S317.4,305.9,299,305.9z"/>
</svg>
