<?xml version="1.0" encoding="utf-8"?>
<!-- Generator: Adobe Illustrator 26.2.1, SVG Export Plug-In . SVG Version: 6.00 Build 0)  -->
<svg version="1.1" id="Layer_1" xmlns="http://www.w3.org/2000/svg" xmlns:xlink="http://www.w3.org/1999/xlink" x="0px" y="0px"
	 viewBox="0 0 500 500" style="enable-background:new 0 0 500 500;" xml:space="preserve">
<style type="text/css">
	.st0{fill-rule:evenodd;clip-rule:evenodd;fill:#00A1E0;}
	.st1{fill-rule:evenodd;clip-rule:evenodd;fill:#FFFFFE;}
</style>
<g>
	<path class="st0" d="M206.7,143.7c12.8-13.3,30.6-21.5,50.2-21.5c26.2,0,48.9,14.5,61.1,36.2c10.8-4.8,22.6-7.4,34.5-7.4
		c47.1,0,85.5,38.6,85.5,86.2s-38.2,86.3-85.4,86.3c-5.8,0-11.4-0.6-16.9-1.7c-10.7,19-31.2,32-54.5,32c-9.5,0-18.9-2.2-27.4-6.3
		c-10.8,25.5-36.1,43.4-65.5,43.4c-30.8,0-56.8-19.4-66.8-46.6c-4.5,1-9,1.4-13.6,1.4c-36.5,0-66.1-30-66.1-66.8
		c0-24.7,13.3-46.3,33.1-58c-4.2-9.6-6.3-20.1-6.3-30.6c0-42.5,34.5-76.9,77-76.9C170.5,113.5,192.8,125.4,206.7,143.7"/>
	<path class="st1" d="M99.6,257.3c-0.2,0.6,0.1,0.8,0.2,0.9c0.7,0.6,1.5,1,2.2,1.4c4,2.2,7.9,2.7,11.9,2.7c8.1,0,13.2-4.3,13.2-11.2
		v-0.2c0-6.4-5.7-8.8-11-10.4l-0.7-0.2c-4-1.3-7.5-2.4-7.5-5.1V235c0-2.2,2-3.9,5.2-3.9c3.5,0,7.6,1.1,10.4,2.7c0,0,0.8,0.5,1-0.2
		c0.2-0.4,1.5-4,1.7-4.4s-0.1-0.7-0.4-0.9c-3.1-1.8-7.3-3.1-11.6-3.1h-0.8c-7.5,0-12.6,4.5-12.6,10.9v0.2c0,6.7,5.7,9,11.1,10.5
		l0.9,0.2c3.9,1.2,7.3,2.2,7.3,5v0.2c0,2.5-2.2,4.4-5.7,4.4c-1.4,0-5.7,0-10.4-3.1c-0.6-0.3-0.9-0.6-1.4-0.8c-0.2-0.2-0.8-0.4-1,0.4
		L99.6,257.3 M218.5,257.3c-0.2,0.6,0.1,0.8,0.2,0.9c0.7,0.6,1.5,1,2.2,1.4c4,2.2,7.9,2.7,11.9,2.7c8.1,0,13.2-4.3,13.2-11.2v-0.2
		c0-6.4-5.7-8.8-11-10.4l-0.7-0.2c-4-1.3-7.5-2.4-7.5-5.1V235c0-2.2,2-3.9,5.2-3.9c3.5,0,7.6,1.1,10.4,2.7c0,0,0.8,0.5,1-0.2
		c0.2-0.4,1.5-4,1.6-4.4c0.2-0.4-0.1-0.7-0.4-0.9c-3.1-1.8-7.3-3.1-11.6-3.1h-0.8c-7.5,0-12.6,4.5-12.6,10.9v0.2
		c0,6.7,5.7,9,11.1,10.5l0.9,0.2c3.9,1.2,7.3,2.2,7.3,5v0.2c0,2.5-2.2,4.4-5.7,4.4c-1.4,0-5.8,0-10.4-3.1c-0.6-0.3-0.9-0.6-1.4-0.8
		c-0.2-0.1-0.8-0.3-1,0.4L218.5,257.3 M299.7,243.7c0,3.9-0.7,7.1-2.2,9.2c-1.4,2.2-3.6,3.2-6.6,3.2c-3.1,0-5.1-1-6.6-3.2
		c-1.4-2.2-2.2-5.3-2.2-9.2s0.7-7,2.2-9.2s3.5-3.2,6.6-3.2c3.1,0,5.2,1,6.6,3.2C299,236.7,299.7,239.7,299.7,243.7 M306.6,236.3
		c-0.6-2.2-1.7-4.3-3.1-5.9c-1.4-1.7-3.1-3-5.2-3.9s-4.5-1.4-7.3-1.4c-2.7,0-5.2,0.5-7.3,1.4s-3.9,2.3-5.2,3.9
		c-1.4,1.7-2.4,3.6-3.1,5.9s-1,4.7-1,7.3c0,2.6,0.3,5.1,1,7.3c0.6,2.2,1.7,4.3,3.1,5.9c1.4,1.7,3.1,3,5.2,3.9s4.5,1.4,7.3,1.4
		s5.2-0.5,7.2-1.4c2.1-1,3.9-2.2,5.2-3.9c1.4-1.7,2.4-3.6,3.1-5.9c0.6-2.2,1-4.7,1-7.3C307.5,241.1,307.2,238.6,306.6,236.3
		 M362.3,255c-0.2-0.6-0.9-0.4-0.9-0.4c-1,0.4-2,0.7-3.1,0.9c-1.1,0.2-2.4,0.2-3.7,0.2c-3.3,0-5.9-1-7.8-2.9
		c-1.8-1.9-2.9-5.1-2.9-9.2c0-3.9,1-6.7,2.6-8.9c1.6-2.2,4.2-3.3,7.5-3.3c2.8,0,4.9,0.3,7.1,1c0,0,0.6,0.2,0.8-0.5
		c0.6-1.6,1-2.8,1.7-4.7c0.2-0.5-0.2-0.7-0.4-0.8c-0.9-0.3-3-0.9-4.5-1.1c-1.4-0.2-3.2-0.3-5.1-0.3c-2.9,0-5.4,0.5-7.5,1.4
		s-4,2.3-5.5,3.9s-2.6,3.6-3.3,5.9c-0.7,2.2-1.1,4.7-1.1,7.3c0,5.6,1.5,10.2,4.5,13.5c3,3.4,7.5,5.1,13.4,5.1c3.5,0,7.1-0.7,9.6-1.7
		c0,0,0.5-0.2,0.2-0.8L362.3,255 M374.2,239.9c0.3-2.2,0.9-4,1.8-5.4c1.4-2.2,3.5-3.4,6.6-3.4c3.1,0,5,1.2,6.4,3.4
		c1,1.4,1.4,3.3,1.5,5.4H374.2L374.2,239.9z M397,235.1c-0.6-2.2-2-4.3-3-5.4c-1.4-1.6-2.9-2.7-4.3-3.3c-2.1-0.9-4.3-1.4-6.6-1.4
		c-2.9,0-5.5,0.5-7.5,1.4s-3.9,2.3-5.3,4c-1.4,1.7-2.4,3.7-3.1,5.9c-0.6,2.2-1,4.7-1,7.3c0,2.7,0.3,5.1,1,7.3
		c0.7,2.2,1.8,4.2,3.4,5.9c1.5,1.6,3.5,2.9,5.8,3.9c2.3,0.9,5.1,1.4,8.4,1.4c6.7,0,10.1-1.5,11.6-2.3c0.2-0.2,0.5-0.4,0.2-1.1
		l-1.5-4.2c-0.2-0.6-0.9-0.4-0.9-0.4c-1.6,0.6-3.9,1.7-9.4,1.7c-3.5,0-6.2-1-7.9-2.7c-1.7-1.7-2.6-4.2-2.7-7.6h23c0,0,0.6,0,0.6-0.6
		C397.8,244.7,398.5,240.2,397,235.1L397,235.1z M190.3,239.9c0.3-2.2,1-4,1.8-5.4c1.4-2.2,3.5-3.4,6.6-3.4c3.1,0,5,1.2,6.4,3.4
		c1,1.4,1.4,3.3,1.5,5.4H190.3L190.3,239.9z M213.1,235.1c-0.6-2.2-2-4.3-3-5.4c-1.4-1.6-2.9-2.7-4.3-3.3c-2.1-0.9-4.3-1.4-6.6-1.4
		c-2.9,0-5.5,0.5-7.5,1.4c-2.1,1-3.9,2.3-5.3,4c-1.4,1.7-2.4,3.7-3.1,5.9c-0.6,2.2-1,4.7-1,7.3c0,2.7,0.3,5.1,1,7.3
		c0.7,2.2,1.8,4.2,3.3,5.9c1.5,1.6,3.5,2.9,5.8,3.9c2.3,0.9,5.1,1.4,8.4,1.4c6.7,0,10.1-1.5,11.6-2.3c0.2-0.2,0.5-0.4,0.2-1.1
		l-1.5-4.2c-0.2-0.6-0.9-0.4-0.9-0.4c-1.6,0.6-3.9,1.7-9.4,1.7c-3.5,0-6.2-1-7.9-2.7c-1.7-1.7-2.6-4.2-2.7-7.6h23c0,0,0.6,0,0.6-0.6
		C213.9,244.7,214.6,240.2,213.1,235.1L213.1,235.1z M140.6,254.9c-0.9-0.7-1-0.9-1.3-1.4c-0.5-0.7-0.7-1.7-0.7-3
		c0-2,0.6-3.5,2.1-4.4c0,0,2-1.7,6.7-1.7c2.1,0,4.2,0.2,6.3,0.6v10.4l0,0c0,0-2.9,0.6-6.2,0.8C142.7,256.5,140.6,254.9,140.6,254.9
		L140.6,254.9z M149.8,238.7c-1-0.1-2.2-0.1-3.6-0.1c-1.9,0-3.9,0.2-5.6,0.7s-3.4,1.2-4.8,2.2c-1.4,1-2.5,2.2-3.4,3.8
		c-0.8,1.5-1.2,3.3-1.2,5.3c0,2,0.3,3.8,1,5.2c0.7,1.4,1.7,2.7,3,3.6c1.3,1,2.9,1.6,4.7,2c1.8,0.4,3.9,0.6,6.1,0.6
		c2.3,0,4.7-0.2,7-0.6c1.9-0.3,3.9-0.7,5.8-1.1c0.8-0.2,1.6-0.4,1.6-0.4c0.6-0.2,0.6-0.7,0.6-0.7v-21c0-4.6-1.2-8-3.7-10.1
		c-2.4-2.1-5.9-3.2-10.5-3.2c-1.7,0-4.5,0.2-6.2,0.6c0,0-5,1-7.1,2.6c0,0-0.5,0.2-0.2,0.9l1.6,4.3c0.2,0.6,0.7,0.4,0.7,0.4
		s0.2-0.1,0.4-0.2c4.4-2.4,10-2.3,10-2.3c2.5,0,4.4,0.5,5.7,1.4c1.3,1,1.9,2.4,1.9,5.5v1C151.6,238.9,149.8,238.8,149.8,238.7
		L149.8,238.7z M334.7,226.9c0.2-0.3,0-0.7-0.3-0.8l0,0c-0.4-0.2-2.3-0.6-3.9-0.6c-2.9-0.2-4.5,0.3-5.9,1c-1.4,0.6-3,1.7-3.9,2.9
		v-2.8c0-0.4-0.2-0.7-0.6-0.7h-5.9c-0.4,0-0.6,0.3-0.6,0.7v34.2c0,0.4,0.3,0.7,0.7,0.7h6c0.4,0,0.7-0.3,0.7-0.7v-17.3
		c0-2.3,0.2-4.6,0.7-6c0.5-1.4,1.2-2.6,2-3.4c0.8-0.8,1.8-1.4,2.8-1.7c1-0.3,2-0.4,3.1-0.4c1.2,0,2.5,0.3,2.5,0.3
		c0.5,0.1,0.7-0.2,0.8-0.6C333.3,230.6,334.4,227.4,334.7,226.9"/>
	<path class="st1" d="M278.4,211c-0.7-0.2-1.5-0.4-2.2-0.6c-1-0.2-2.1-0.2-3.1-0.2c-4.2,0-7.4,1.2-9.7,3.5
		c-2.2,2.3-3.9,5.8-4.6,10.4l-0.2,1.5h-5.2c0,0-0.6,0-0.8,0.6l-0.9,4.7c-0.1,0.5,0.2,0.7,0.7,0.7h5.1l-5.1,28.8
		c-0.4,2.3-0.9,4.3-1.4,5.7s-1,2.5-1.6,3.3c-0.6,0.7-1.1,1.3-2.1,1.6c-0.8,0.2-1.7,0.4-2.7,0.4c-0.6,0-1.3-0.1-1.8-0.2
		c-0.6-0.1-0.8-0.2-1.2-0.4c0,0-0.6-0.2-0.8,0.4c-0.2,0.5-1.5,4.2-1.7,4.7c-0.2,0.5,0.1,0.8,0.3,0.9c0.6,0.2,1.2,0.4,2.1,0.6
		c1.3,0.3,2.3,0.3,3.4,0.3c2.1,0,4-0.3,5.6-0.9c1.6-0.6,3-1.6,4.3-3c1.4-1.4,2.2-3.1,3-5.1c0.8-2.1,1.4-4.7,2-7.7l5.1-29.3h7.5
		c0,0,0.6,0,0.8-0.6l0.9-4.7c0.1-0.5-0.2-0.7-0.7-0.7h-7.3c0-0.2,0.4-2.7,1.2-5.2c0.3-1,1-1.8,1.6-2.5c0.6-0.6,1.2-1,1.9-1.2
		c0.8-0.2,1.6-0.4,2.5-0.3c0.7,0,1.4,0.1,1.8,0.2c0.7,0.2,1,0.2,1.2,0.3c0.7,0.2,0.9,0,1-0.3l1.8-4.8
		C279,211.4,278.5,211.1,278.4,211 M175.7,260.8c0,0.4-0.2,0.7-0.6,0.7H169c-0.4,0-0.6-0.3-0.6-0.7v-49c0-0.4,0.2-0.7,0.6-0.7h6.1
		c0.4,0,0.6,0.3,0.6,0.7V260.8"/>
</g>
</svg>
