<svg width="32" height="32" viewBox="0 0 32 32" fill="none" xmlns="http://www.w3.org/2000/svg">
<path d="M11.9973 27.3133C9.65828 26.4857 7.63327 24.9534 6.20106 22.9274C4.76886 20.9013 3.99988 18.4811 4 16C4 14.4241 4.31039 12.8637 4.91345 11.4078C5.5165 9.95189 6.40042 8.62902 7.51472 7.51472C8.62902 6.40042 9.95189 5.5165 11.4078 4.91345C12.8637 4.31039 14.4241 4 16 4C17.5759 4 19.1363 4.31039 20.5922 4.91345C22.0481 5.5165 23.371 6.40042 24.4853 7.51472C25.5996 8.62902 26.4835 9.95189 27.0866 11.4078C27.6896 12.8637 28 14.4241 28 16M16 9.33333V16M16 20H18.6667C19.0203 20 19.3594 20.1405 19.6095 20.3905C19.8595 20.6406 20 20.9797 20 21.3333V22.6667C20 23.0203 19.8595 23.3594 19.6095 23.6095C19.3594 23.8595 19.0203 24 18.6667 24H17.3333C16.9797 24 16.6406 24.1405 16.3905 24.3905C16.1405 24.6406 16 24.9797 16 25.3333V26.6667C16 27.0203 16.1405 27.3594 16.3905 27.6095C16.6406 27.8595 16.9797 28 17.3333 28H20M24 20V22.6667C24 23.0203 24.1405 23.3594 24.3905 23.6095C24.6406 23.8595 24.9797 24 25.3333 24H26.6667M28 20V28" stroke="#283CFF" stroke-width="2.66667" stroke-linecap="round" stroke-linejoin="round"/>
</svg>
