<svg width="97" height="33" viewBox="0 0 97 33" fill="none" xmlns="http://www.w3.org/2000/svg">
<path d="M5.88281 19.1667V15.1667C5.88281 12.3377 7.00662 9.62458 9.00701 7.62419C11.0074 5.62381 13.7205 4.5 16.5495 4.5C19.3785 4.5 22.0916 5.62381 24.092 7.62419C26.0923 9.62458 27.2161 12.3377 27.2161 15.1667V19.1667M24.5495 25.8333C24.5495 28.0427 20.9681 29.8333 16.5495 29.8333" stroke="#283CFF" stroke-width="2.66667" stroke-linecap="round" stroke-linejoin="round"/>
<path d="M5.88281 19.1667C5.88281 18.4594 6.16376 17.7811 6.66386 17.281C7.16396 16.781 7.84224 16.5 8.54948 16.5H9.88281C10.5901 16.5 11.2683 16.781 11.7684 17.281C12.2685 17.7811 12.5495 18.4594 12.5495 19.1667V23.1667C12.5495 23.8739 12.2685 24.5522 11.7684 25.0523C11.2683 25.5524 10.5901 25.8333 9.88281 25.8333H8.54948C7.84224 25.8333 7.16396 25.5524 6.66386 25.0523C6.16376 24.5522 5.88281 23.8739 5.88281 23.1667V19.1667ZM20.5495 19.1667C20.5495 18.4594 20.8304 17.7811 21.3305 17.281C21.8306 16.781 22.5089 16.5 23.2161 16.5H24.5495C25.2567 16.5 25.935 16.781 26.4351 17.281C26.9352 17.7811 27.2161 18.4594 27.2161 19.1667V23.1667C27.2161 23.8739 26.9352 24.5522 26.4351 25.0523C25.935 25.5524 25.2567 25.8333 24.5495 25.8333H23.2161C22.5089 25.8333 21.8306 25.5524 21.3305 25.0523C20.8304 24.5522 20.5495 23.8739 20.5495 23.1667V19.1667Z" stroke="#283CFF" stroke-width="2.66667" stroke-linecap="round" stroke-linejoin="round"/>
<path d="M60.5498 9.83301H36.5498M60.5498 9.83301L56.5498 13.833M60.5498 9.83301L56.5498 5.83301M40.5498 27.1663L36.5498 23.1663M36.5498 23.1663L40.5498 19.1663M36.5498 23.1663H60.5498" stroke="#B0B8FF" stroke-width="2" stroke-linecap="round" stroke-linejoin="round"/>
<path d="M69.2621 20.6157C69.1226 21.2405 69.5979 21.8337 70.2381 21.8337H78.2168C78.7691 21.8337 79.2168 21.3859 79.2168 20.8337V18.8337C79.2168 18.2814 78.7691 17.8337 78.2168 17.8337H70.6848C70.2165 17.8337 69.8109 18.1587 69.7088 18.6157L69.2621 20.6157ZM81.8835 20.8337C81.8835 21.3859 82.3312 21.8337 82.8835 21.8337H90.8622C91.5023 21.8337 91.9777 21.2405 91.8381 20.6157L91.3915 18.6157C91.2894 18.1587 90.8838 17.8337 90.4155 17.8337H82.8835C82.3312 17.8337 81.8835 18.2814 81.8835 18.8337V20.8337ZM92.871 25.2831C92.7692 24.8257 92.3634 24.5003 91.8948 24.5003H82.8835C82.3312 24.5003 81.8835 24.948 81.8835 25.5003V28.8337C81.8835 29.3859 82.3312 29.8337 82.8835 29.8337H92.6365C93.2764 29.8337 93.7516 29.2411 93.6126 28.6165L92.871 25.2831ZM67.4876 28.6165C67.3487 29.2411 67.8239 29.8337 68.4638 29.8337H78.2168C78.7691 29.8337 79.2168 29.3859 79.2168 28.8337V25.5003C79.2168 24.948 78.7691 24.5003 78.2168 24.5003H69.2054C68.7368 24.5003 68.3311 24.8257 68.2293 25.2831L67.4876 28.6165ZM79.2168 12.167C79.2168 11.6147 79.6645 11.167 80.2168 11.167H80.8835C81.4357 11.167 81.8835 11.6147 81.8835 12.167V14.167C81.8835 14.7193 81.4357 15.167 80.8835 15.167H80.2168C79.6645 15.167 79.2168 14.7193 79.2168 14.167V12.167ZM86.2739 10.8208C85.8818 10.4305 85.8811 9.79606 86.2722 9.40489L86.7497 8.92743C87.1402 8.53691 87.7734 8.53691 88.1639 8.92743L89.5789 10.3424C89.9684 10.7319 89.9695 11.3632 89.5813 11.7541L89.1089 12.2299C88.7194 12.6221 88.0856 12.624 87.6939 12.2341L86.2739 10.8208ZM71.5322 11.7541C71.1441 11.3632 71.1452 10.7319 71.5347 10.3424L72.9472 8.92993C73.3387 8.53843 73.9738 8.53956 74.3639 8.93244L74.8347 9.40656C75.2228 9.79748 75.2217 10.4287 74.8322 10.8183L73.4197 12.2307C73.0282 12.6222 72.3931 12.6211 72.003 12.2282L71.5322 11.7541ZM68.5501 4.16699C68.5501 3.61471 68.9978 3.16699 69.5501 3.16699H71.5501C72.1024 3.16699 72.5501 3.61471 72.5501 4.16699V4.83366C72.5501 5.38594 72.1024 5.83366 71.5501 5.83366H69.5501C68.9978 5.83366 68.5501 5.38594 68.5501 4.83366V4.16699ZM88.5501 4.16699C88.5501 3.61471 88.9978 3.16699 89.5501 3.16699H91.5501C92.1024 3.16699 92.5501 3.61471 92.5501 4.16699V4.83366C92.5501 5.38594 92.1024 5.83366 91.5501 5.83366H89.5501C88.9978 5.83366 88.5501 5.38594 88.5501 4.83366V4.16699ZM80.5501 9.83366C83.8915 9.83366 86.6613 7.37137 87.1427 4.1635C87.2247 3.61733 86.7691 3.16699 86.2168 3.16699H74.8835C74.3312 3.16699 73.8756 3.61733 73.9575 4.1635C74.439 7.37137 77.2088 9.83366 80.5501 9.83366Z" fill="#283CFF"/>
</svg>
