<svg width="97" height="33" viewBox="0 0 97 33" fill="none" xmlns="http://www.w3.org/2000/svg">
<path d="M6.18262 19.1667V15.1667C6.18262 12.3377 7.30642 9.62458 9.30681 7.62419C11.3072 5.62381 14.0203 4.5 16.8493 4.5C19.6783 4.5 22.3914 5.62381 24.3918 7.62419C26.3921 9.62458 27.516 12.3377 27.516 15.1667V19.1667M24.8493 25.8333C24.8493 28.0427 21.268 29.8333 16.8493 29.8333" stroke="#283CFF" stroke-width="2.66667" stroke-linecap="round" stroke-linejoin="round"/>
<path d="M6.18262 19.1667C6.18262 18.4594 6.46357 17.7811 6.96367 17.281C7.46376 16.781 8.14204 16.5 8.84928 16.5H10.1826C10.8899 16.5 11.5681 16.781 12.0682 17.281C12.5683 17.7811 12.8493 18.4594 12.8493 19.1667V23.1667C12.8493 23.8739 12.5683 24.5522 12.0682 25.0523C11.5681 25.5524 10.8899 25.8333 10.1826 25.8333H8.84928C8.14204 25.8333 7.46376 25.5524 6.96367 25.0523C6.46357 24.5522 6.18262 23.8739 6.18262 23.1667V19.1667ZM20.8493 19.1667C20.8493 18.4594 21.1302 17.7811 21.6303 17.281C22.1304 16.781 22.8087 16.5 23.516 16.5H24.8493C25.5565 16.5 26.2348 16.781 26.7349 17.281C27.235 17.7811 27.516 18.4594 27.516 19.1667V23.1667C27.516 23.8739 27.235 24.5522 26.7349 25.0523C26.2348 25.5524 25.5565 25.8333 24.8493 25.8333H23.516C22.8087 25.8333 22.1304 25.5524 21.6303 25.0523C21.1302 24.5522 20.8493 23.8739 20.8493 23.1667V19.1667Z" stroke="#283CFF" stroke-width="2.66667" stroke-linecap="round" stroke-linejoin="round"/>
<path d="M60.8496 9.83301H36.8496M60.8496 9.83301L56.8496 13.833M60.8496 9.83301L56.8496 5.83301M40.8496 27.1663L36.8496 23.1663M36.8496 23.1663L40.8496 19.1663M36.8496 23.1663H60.8496" stroke="#B0B8FF" stroke-width="2" stroke-linecap="round" stroke-linejoin="round"/>
<path d="M70.1826 25.8337C70.1826 26.5409 70.4636 27.2192 70.9637 27.7193C71.4638 28.2194 72.142 28.5003 72.8493 28.5003C73.5565 28.5003 74.2348 28.2194 74.7349 27.7193C75.235 27.2192 75.516 26.5409 75.516 25.8337C75.516 25.1264 75.235 24.4481 74.7349 23.948C74.2348 23.4479 73.5565 23.167 72.8493 23.167C72.142 23.167 71.4638 23.4479 70.9637 23.948C70.4636 24.4481 70.1826 25.1264 70.1826 25.8337Z" stroke="#283CFF" stroke-width="2.66667" stroke-linecap="round" stroke-linejoin="round"/>
<path d="M82.8493 23.1667H72.8493V4.5H70.1826" stroke="#283CFF" stroke-width="2.66667" stroke-linecap="round" stroke-linejoin="round"/>
<path d="M72.8496 7.16699L91.5163 8.50033L90.3723 16.5057M86.8496 17.8337H72.8496M90.1829 21.8337L87.5163 25.8337H92.8496L90.1829 29.8337" stroke="#283CFF" stroke-width="2.66667" stroke-linecap="round" stroke-linejoin="round"/>
</svg>
