<svg width="97" height="33" viewBox="0 0 97 33" fill="none" xmlns="http://www.w3.org/2000/svg">
<path d="M6.18262 19.1667V15.1667C6.18262 12.3377 7.30642 9.62458 9.30681 7.62419C11.3072 5.62381 14.0203 4.5 16.8493 4.5C19.6783 4.5 22.3914 5.62381 24.3918 7.62419C26.3921 9.62458 27.516 12.3377 27.516 15.1667V19.1667M24.8493 25.8333C24.8493 28.0427 21.268 29.8333 16.8493 29.8333" stroke="#283CFF" stroke-width="2.66667" stroke-linecap="round" stroke-linejoin="round"/>
<path d="M6.18262 19.1667C6.18262 18.4594 6.46357 17.7811 6.96367 17.281C7.46376 16.781 8.14204 16.5 8.84928 16.5H10.1826C10.8899 16.5 11.5681 16.781 12.0682 17.281C12.5683 17.7811 12.8493 18.4594 12.8493 19.1667V23.1667C12.8493 23.8739 12.5683 24.5522 12.0682 25.0523C11.5681 25.5524 10.8899 25.8333 10.1826 25.8333H8.84928C8.14204 25.8333 7.46376 25.5524 6.96367 25.0523C6.46357 24.5522 6.18262 23.8739 6.18262 23.1667V19.1667ZM20.8493 19.1667C20.8493 18.4594 21.1302 17.7811 21.6303 17.281C22.1304 16.781 22.8087 16.5 23.516 16.5H24.8493C25.5565 16.5 26.2348 16.781 26.7349 17.281C27.235 17.7811 27.516 18.4594 27.516 19.1667V23.1667C27.516 23.8739 27.235 24.5522 26.7349 25.0523C26.2348 25.5524 25.5565 25.8333 24.8493 25.8333H23.516C22.8087 25.8333 22.1304 25.5524 21.6303 25.0523C21.1302 24.5522 20.8493 23.8739 20.8493 23.1667V19.1667Z" stroke="#283CFF" stroke-width="2.66667" stroke-linecap="round" stroke-linejoin="round"/>
<path d="M60.8496 9.83301H36.8496M60.8496 9.83301L56.8496 13.833M60.8496 9.83301L56.8496 5.83301M40.8496 27.1663L36.8496 23.1663M36.8496 23.1663L40.8496 19.1663M36.8496 23.1663H60.8496" stroke="#B0B8FF" stroke-width="2" stroke-linecap="round" stroke-linejoin="round"/>
<path d="M72.8496 5.83301H71.5163C70.809 5.83301 70.1308 6.11396 69.6307 6.61406C69.1306 7.11415 68.8496 7.79243 68.8496 8.49967V13.1663C68.8496 15.1113 69.6222 16.9765 70.9975 18.3518C72.3728 19.7271 74.238 20.4997 76.1829 20.4997C78.1279 20.4997 79.9931 19.7271 81.3684 18.3518C82.7437 16.9765 83.5163 15.1113 83.5163 13.1663V8.49967C83.5163 7.79243 83.2353 7.11415 82.7352 6.61406C82.2351 6.11396 81.5569 5.83301 80.8496 5.83301H79.5163" stroke="#283CFF" stroke-width="2.66667" stroke-linecap="round" stroke-linejoin="round"/>
<path d="M75.5163 20.5C75.5163 21.5506 75.7232 22.5909 76.1252 23.5615C76.5273 24.5321 77.1166 25.414 77.8594 26.1569C78.6023 26.8997 79.4842 27.489 80.4548 27.891C81.4254 28.2931 82.4657 28.5 83.5163 28.5C84.5669 28.5 85.6071 28.2931 86.5777 27.891C87.5483 27.489 88.4303 26.8997 89.1731 26.1569C89.916 25.414 90.5053 24.5321 90.9073 23.5615C91.3094 22.5909 91.5163 21.5506 91.5163 20.5V16.5M79.5163 4.5V7.16667M72.8496 4.5V7.16667" stroke="#283CFF" stroke-width="2.66667" stroke-linecap="round" stroke-linejoin="round"/>
<path d="M88.8496 13.8337C88.8496 14.5409 89.1306 15.2192 89.6307 15.7193C90.1308 16.2194 90.809 16.5003 91.5163 16.5003C92.2235 16.5003 92.9018 16.2194 93.4019 15.7193C93.902 15.2192 94.1829 14.5409 94.1829 13.8337C94.1829 13.1264 93.902 12.4481 93.4019 11.948C92.9018 11.4479 92.2235 11.167 91.5163 11.167C90.809 11.167 90.1308 11.4479 89.6307 11.948C89.1306 12.4481 88.8496 13.1264 88.8496 13.8337Z" stroke="#283CFF" stroke-width="2.66667" stroke-linecap="round" stroke-linejoin="round"/>
</svg>
