<svg width="97" height="33" viewBox="0 0 97 33" fill="none" xmlns="http://www.w3.org/2000/svg">
<path d="M5.88281 19.1667V15.1667C5.88281 12.3377 7.00662 9.62458 9.00701 7.62419C11.0074 5.62381 13.7205 4.5 16.5495 4.5C19.3785 4.5 22.0916 5.62381 24.092 7.62419C26.0923 9.62458 27.2161 12.3377 27.2161 15.1667V19.1667M24.5495 25.8333C24.5495 28.0427 20.9681 29.8333 16.5495 29.8333" stroke="#283CFF" stroke-width="2.66667" stroke-linecap="round" stroke-linejoin="round"/>
<path d="M5.88281 19.1667C5.88281 18.4594 6.16376 17.7811 6.66386 17.281C7.16396 16.781 7.84224 16.5 8.54948 16.5H9.88281C10.5901 16.5 11.2683 16.781 11.7684 17.281C12.2685 17.7811 12.5495 18.4594 12.5495 19.1667V23.1667C12.5495 23.8739 12.2685 24.5522 11.7684 25.0523C11.2683 25.5524 10.5901 25.8333 9.88281 25.8333H8.54948C7.84224 25.8333 7.16396 25.5524 6.66386 25.0523C6.16376 24.5522 5.88281 23.8739 5.88281 23.1667V19.1667ZM20.5495 19.1667C20.5495 18.4594 20.8304 17.7811 21.3305 17.281C21.8306 16.781 22.5089 16.5 23.2161 16.5H24.5495C25.2567 16.5 25.935 16.781 26.4351 17.281C26.9352 17.7811 27.2161 18.4594 27.2161 19.1667V23.1667C27.2161 23.8739 26.9352 24.5522 26.4351 25.0523C25.935 25.5524 25.2567 25.8333 24.5495 25.8333H23.2161C22.5089 25.8333 21.8306 25.5524 21.3305 25.0523C20.8304 24.5522 20.5495 23.8739 20.5495 23.1667V19.1667Z" stroke="#283CFF" stroke-width="2.66667" stroke-linecap="round" stroke-linejoin="round"/>
<path d="M60.5498 9.83301H36.5498M60.5498 9.83301L56.5498 13.833M60.5498 9.83301L56.5498 5.83301M40.5498 27.1663L36.5498 23.1663M36.5498 23.1663L40.5498 19.1663M36.5498 23.1663H60.5498" stroke="#B0B8FF" stroke-width="2" stroke-linecap="round" stroke-linejoin="round"/>
<path d="M81.8831 28.5V19.1667L75.2165 12.5L68.5498 19.1667V28.5H75.2165M81.8831 28.5H75.2165M81.8831 28.5H92.5498V5.83333C92.5498 5.47971 92.4093 5.14057 92.1593 4.89052C91.9092 4.64048 91.5701 4.5 91.2165 4.5H77.8831C77.5295 4.5 77.1904 4.64048 76.9403 4.89052C76.6903 5.14057 76.5498 5.47971 76.5498 5.83333V13.8333M75.2165 28.5V23.1667M81.8831 9.83333V9.84667M87.2165 9.83333V9.84667M87.2165 15.1667V15.18M87.2165 20.5V20.5133" stroke="#283CFF" stroke-width="2.66667" stroke-linecap="round" stroke-linejoin="round"/>
</svg>
