<svg width="97" height="33" viewBox="0 0 97 33" fill="none" xmlns="http://www.w3.org/2000/svg">
<path d="M5.58301 19.1667V15.1667C5.58301 12.3377 6.70681 9.62458 8.7072 7.62419C10.7076 5.62381 13.4207 4.5 16.2497 4.5C19.0787 4.5 21.7918 5.62381 23.7921 7.62419C25.7925 9.62458 26.9163 12.3377 26.9163 15.1667V19.1667M24.2497 25.8333C24.2497 28.0427 20.6683 29.8333 16.2497 29.8333" stroke="#283CFF" stroke-width="2.66667" stroke-linecap="round" stroke-linejoin="round"/>
<path d="M5.58301 19.1667C5.58301 18.4594 5.86396 17.7811 6.36406 17.281C6.86415 16.781 7.54243 16.5 8.24967 16.5H9.58301C10.2903 16.5 10.9685 16.781 11.4686 17.281C11.9687 17.7811 12.2497 18.4594 12.2497 19.1667V23.1667C12.2497 23.8739 11.9687 24.5522 11.4686 25.0523C10.9685 25.5524 10.2903 25.8333 9.58301 25.8333H8.24967C7.54243 25.8333 6.86415 25.5524 6.36406 25.0523C5.86396 24.5522 5.58301 23.8739 5.58301 23.1667V19.1667ZM20.2497 19.1667C20.2497 18.4594 20.5306 17.7811 21.0307 17.281C21.5308 16.781 22.2091 16.5 22.9163 16.5H24.2497C24.9569 16.5 25.6352 16.781 26.1353 17.281C26.6354 17.7811 26.9163 18.4594 26.9163 19.1667V23.1667C26.9163 23.8739 26.6354 24.5522 26.1353 25.0523C25.6352 25.5524 24.9569 25.8333 24.2497 25.8333H22.9163C22.2091 25.8333 21.5308 25.5524 21.0307 25.0523C20.5306 24.5522 20.2497 23.8739 20.2497 23.1667V19.1667Z" stroke="#283CFF" stroke-width="2.66667" stroke-linecap="round" stroke-linejoin="round"/>
<path d="M60.25 9.83301H36.25M60.25 9.83301L56.25 13.833M60.25 9.83301L56.25 5.83301M40.25 27.1663L36.25 23.1663M36.25 23.1663L40.25 19.1663M36.25 23.1663H60.25" stroke="#B0B8FF" stroke-width="2" stroke-linecap="round" stroke-linejoin="round"/>
<path d="M82.917 4.5V9.83333C82.917 10.187 83.0575 10.5261 83.3075 10.7761C83.5576 11.0262 83.8967 11.1667 84.2503 11.1667H89.5837" stroke="#283CFF" stroke-width="2.66667" stroke-linecap="round" stroke-linejoin="round"/>
<path d="M70.917 16.5V7.16667C70.917 6.45942 71.1979 5.78115 71.698 5.28105C72.1981 4.78095 72.8764 4.5 73.5837 4.5H82.917L89.5837 11.1667V16.5M70.917 28.5H89.5837M70.917 24.5H89.5837M70.917 20.5H89.5837" stroke="#283CFF" stroke-width="2.66667" stroke-linecap="round" stroke-linejoin="round"/>
</svg>
