<svg width="97" height="33" viewBox="0 0 97 33" fill="none" xmlns="http://www.w3.org/2000/svg">
<path d="M5.58301 19.1667V15.1667C5.58301 12.3377 6.70681 9.62458 8.7072 7.62419C10.7076 5.62381 13.4207 4.5 16.2497 4.5C19.0787 4.5 21.7918 5.62381 23.7921 7.62419C25.7925 9.62458 26.9163 12.3377 26.9163 15.1667V19.1667M24.2497 25.8333C24.2497 28.0427 20.6683 29.8333 16.2497 29.8333" stroke="#283CFF" stroke-width="2.66667" stroke-linecap="round" stroke-linejoin="round"/>
<path d="M5.58301 19.1667C5.58301 18.4594 5.86396 17.7811 6.36406 17.281C6.86415 16.781 7.54243 16.5 8.24967 16.5H9.58301C10.2903 16.5 10.9685 16.781 11.4686 17.281C11.9687 17.7811 12.2497 18.4594 12.2497 19.1667V23.1667C12.2497 23.8739 11.9687 24.5522 11.4686 25.0523C10.9685 25.5524 10.2903 25.8333 9.58301 25.8333H8.24967C7.54243 25.8333 6.86415 25.5524 6.36406 25.0523C5.86396 24.5522 5.58301 23.8739 5.58301 23.1667V19.1667ZM20.2497 19.1667C20.2497 18.4594 20.5306 17.7811 21.0307 17.281C21.5308 16.781 22.2091 16.5 22.9163 16.5H24.2497C24.9569 16.5 25.6352 16.781 26.1353 17.281C26.6354 17.7811 26.9163 18.4594 26.9163 19.1667V23.1667C26.9163 23.8739 26.6354 24.5522 26.1353 25.0523C25.6352 25.5524 24.9569 25.8333 24.2497 25.8333H22.9163C22.2091 25.8333 21.5308 25.5524 21.0307 25.0523C20.5306 24.5522 20.2497 23.8739 20.2497 23.1667V19.1667Z" stroke="#283CFF" stroke-width="2.66667" stroke-linecap="round" stroke-linejoin="round"/>
<path d="M60.25 9.83301H36.25M60.25 9.83301L56.25 13.833M60.25 9.83301L56.25 5.83301M40.25 27.1663L36.25 23.1663M36.25 23.1663L40.25 19.1663M36.25 23.1663H60.25" stroke="#B0B8FF" stroke-width="2" stroke-linecap="round" stroke-linejoin="round"/>
<path d="M68.25 16.5C68.25 18.0759 68.5604 19.6363 69.1634 21.0922C69.7665 22.5481 70.6504 23.871 71.7647 24.9853C72.879 26.0996 74.2019 26.9835 75.6578 27.5866C77.1137 28.1896 78.6741 28.5 80.25 28.5C81.8259 28.5 83.3863 28.1896 84.8422 27.5866C86.2981 26.9835 87.621 26.0996 88.7353 24.9853C89.8496 23.871 90.7335 22.5481 91.3366 21.0922C91.9396 19.6363 92.25 18.0759 92.25 16.5C92.25 14.9241 91.9396 13.3637 91.3366 11.9078C90.7335 10.4519 89.8496 9.12902 88.7353 8.01472C87.621 6.90042 86.2981 6.0165 84.8422 5.41345C83.3863 4.81039 81.8259 4.5 80.25 4.5C78.6741 4.5 77.1137 4.81039 75.6578 5.41345C74.2019 6.0165 72.879 6.90042 71.7647 8.01472C70.6504 9.12902 69.7665 10.4519 69.1634 11.9078C68.5604 13.3637 68.25 14.9241 68.25 16.5Z" stroke="#283CFF" stroke-width="2.66667" stroke-linecap="round" stroke-linejoin="round"/>
<path d="M77.583 16.4997C77.583 17.2069 77.864 17.8852 78.3641 18.3853C78.8642 18.8854 79.5424 19.1663 80.2497 19.1663M77.583 16.4997C77.583 15.7924 77.864 15.1142 78.3641 14.6141C78.8642 14.114 79.5424 13.833 80.2497 13.833C80.9569 13.833 81.6352 14.114 82.1353 14.6141C82.6354 15.1142 82.9163 15.7924 82.9163 16.4997M77.583 16.4997L68.583 13.833M80.2497 19.1663C80.9569 19.1663 81.6352 18.8854 82.1353 18.3853C82.6354 17.8852 82.9163 17.2069 82.9163 16.4997M80.2497 19.1663V28.4997M82.9163 16.4997L91.9163 13.833" stroke="#283CFF" stroke-width="2.66667" stroke-linecap="round" stroke-linejoin="round"/>
</svg>
