<svg width="32" height="32" viewBox="0 0 32 32" fill="none" xmlns="http://www.w3.org/2000/svg">
<path d="M15.9998 29.3332C23.3636 29.3332 29.3332 23.3636 29.3332 15.9998C29.3332 8.63604 23.3636 2.6665 15.9998 2.6665C8.63604 2.6665 2.6665 8.63604 2.6665 15.9998C2.6665 23.3636 8.63604 29.3332 15.9998 29.3332Z" stroke="#283CFF" stroke-width="2.67"/>
<path d="M16 8V24M20 12.6667C20 10.8267 18.2093 9.33333 16 9.33333C13.7907 9.33333 12 10.8267 12 12.6667C12 14.5067 13.7907 16 16 16C18.2093 16 20 17.4933 20 19.3333C20 21.1733 18.2093 22.6667 16 22.6667C13.7907 22.6667 12 21.1733 12 19.3333" stroke="#283CFF" stroke-width="2.67" stroke-linecap="round"/>
</svg>
