<svg width="32" height="32" viewBox="0 0 32 32" fill="none" xmlns="http://www.w3.org/2000/svg">
<path d="M18.0002 8.66691L23.3335 14.0002M25.3335 21.3336L22.6668 25.3336H28.0002L25.3335 29.3336M5.3335 26.6669H10.6668L24.6668 12.6669C25.017 12.3167 25.2948 11.901 25.4843 11.4434C25.6739 10.9859 25.7714 10.4955 25.7714 10.0002C25.7714 9.50499 25.6739 9.0146 25.4843 8.55705C25.2948 8.0995 25.017 7.68377 24.6668 7.33357C24.3166 6.98338 23.9009 6.70559 23.4434 6.51607C22.9858 6.32655 22.4954 6.229 22.0002 6.229C21.5049 6.229 21.0145 6.32655 20.557 6.51607C20.0994 6.70559 19.6837 6.98338 19.3335 7.33357L5.3335 21.3336V26.6669Z" stroke="#283CFF" stroke-width="2.66667" stroke-linecap="round" stroke-linejoin="round"/>
</svg>
