<svg width="32" height="32" viewBox="0 0 32 32" fill="none" xmlns="http://www.w3.org/2000/svg">
<path d="M5.3335 25.3332C5.3335 26.0404 5.61445 26.7187 6.11454 27.2188C6.61464 27.7189 7.29292 27.9998 8.00016 27.9998C8.70741 27.9998 9.38568 27.7189 9.88578 27.2188C10.3859 26.7187 10.6668 26.0404 10.6668 25.3332C10.6668 24.6259 10.3859 23.9477 9.88578 23.4476C9.38568 22.9475 8.70741 22.6665 8.00016 22.6665C7.29292 22.6665 6.61464 22.9475 6.11454 23.4476C5.61445 23.9477 5.3335 24.6259 5.3335 25.3332Z" stroke="#283CFF" stroke-width="2.66667" stroke-linecap="round" stroke-linejoin="round"/>
<path d="M18.0002 22.6667H8.00016V4H5.3335" stroke="#283CFF" stroke-width="2.66667" stroke-linecap="round" stroke-linejoin="round"/>
<path d="M8 6.6665L26.6667 7.99984L25.5227 16.0052M22 17.3332H8M25.3333 21.3332L22.6667 25.3332H28L25.3333 29.3332" stroke="#283CFF" stroke-width="2.66667" stroke-linecap="round" stroke-linejoin="round"/>
</svg>
