<svg width="32" height="32" viewBox="0 0 32 32" fill="none" xmlns="http://www.w3.org/2000/svg">
<path d="M8 5.3335H6.66667C5.95942 5.3335 5.28115 5.61445 4.78105 6.11454C4.28095 6.61464 4 7.29292 4 8.00016V12.6668C4 14.6118 4.77262 16.477 6.14788 17.8523C7.52315 19.2275 9.38841 20.0002 11.3333 20.0002C13.2783 20.0002 15.1435 19.2275 16.5188 17.8523C17.8941 16.477 18.6667 14.6118 18.6667 12.6668V8.00016C18.6667 7.29292 18.3857 6.61464 17.8856 6.11454C17.3855 5.61445 16.7072 5.3335 16 5.3335H14.6667" stroke="#283CFF" stroke-width="2.66667" stroke-linecap="round" stroke-linejoin="round"/>
<path d="M10.6667 20C10.6667 21.0506 10.8736 22.0909 11.2756 23.0615C11.6777 24.0321 12.2669 24.914 13.0098 25.6569C13.7527 26.3997 14.6346 26.989 15.6052 27.391C16.5758 27.7931 17.6161 28 18.6667 28C19.7172 28 20.7575 27.7931 21.7281 27.391C22.6987 26.989 23.5807 26.3997 24.3235 25.6569C25.0664 24.914 25.6557 24.0321 26.0577 23.0615C26.4597 22.0909 26.6667 21.0506 26.6667 20V16M14.6667 4V6.66667M8 4V6.66667" stroke="#283CFF" stroke-width="2.66667" stroke-linecap="round" stroke-linejoin="round"/>
<path d="M24 13.3332C24 14.0404 24.281 14.7187 24.781 15.2188C25.2811 15.7189 25.9594 15.9998 26.6667 15.9998C27.3739 15.9998 28.0522 15.7189 28.5523 15.2188C29.0524 14.7187 29.3333 14.0404 29.3333 13.3332C29.3333 12.6259 29.0524 11.9477 28.5523 11.4476C28.0522 10.9475 27.3739 10.6665 26.6667 10.6665C25.9594 10.6665 25.2811 10.9475 24.781 11.4476C24.281 11.9477 24 12.6259 24 13.3332Z" stroke="#283CFF" stroke-width="2.66667" stroke-linecap="round" stroke-linejoin="round"/>
</svg>
