<svg width="32" height="32" viewBox="0 0 32 32" fill="none" xmlns="http://www.w3.org/2000/svg">
<path d="M10.6667 12H21.3333M10.6667 17.3333H18.6667M16 28L14.6667 26.6667L12 24H8C6.93913 24 5.92172 23.5786 5.17157 22.8284C4.42143 22.0783 4 21.0609 4 20V9.33333C4 8.27247 4.42143 7.25505 5.17157 6.50491C5.92172 5.75476 6.93913 5.33333 8 5.33333H24C25.0609 5.33333 26.0783 5.75476 26.8284 6.50491C27.5786 7.25505 28 8.27247 28 9.33333V17.3333M20 25.3333L22.6667 28L28 22.6667" stroke="#283CFF" stroke-width="2.66667" stroke-linecap="round" stroke-linejoin="round"/>
</svg>
