<svg width="32" height="32" viewBox="0 0 32 32" fill="none" xmlns="http://www.w3.org/2000/svg">
<path d="M21.168 15.204L16 4L5.37337 27.0333C5.28004 27.3 5.3507 27.5987 5.55337 27.796C5.75337 27.9933 6.05204 28.0533 6.31337 27.9507L14.7 25.108M26.9334 26.9333L29.3334 29.3333M20 24C20 25.0609 20.4215 26.0783 21.1716 26.8284C21.9218 27.5786 22.9392 28 24 28C25.0609 28 26.0783 27.5786 26.8285 26.8284C27.5786 26.0783 28 25.0609 28 24C28 22.9391 27.5786 21.9217 26.8285 21.1716C26.0783 20.4214 25.0609 20 24 20C22.9392 20 21.9218 20.4214 21.1716 21.1716C20.4215 21.9217 20 22.9391 20 24Z" stroke="#283CFF" stroke-width="2.66667" stroke-linecap="round" stroke-linejoin="round"/>
</svg>
