<svg width="32" height="32" viewBox="0 0 32 32" fill="none" xmlns="http://www.w3.org/2000/svg">
<path d="M20 9.3335V9.34683M24 9.3335V9.34683M28 9.3335V9.34683M6.66667 5.3335H12L14.6667 12.0002L11.3333 14.0002C12.7613 16.8955 15.1046 19.2389 18 20.6668L20 17.3335L26.6667 20.0002V25.3335C26.6667 26.0407 26.3857 26.719 25.8856 27.2191C25.3855 27.7192 24.7072 28.0002 24 28.0002C18.799 27.6841 13.8935 25.4755 10.2091 21.7911C6.52467 18.1066 4.31607 13.2011 4 8.00016C4 7.29292 4.28095 6.61464 4.78105 6.11454C5.28115 5.61445 5.95942 5.3335 6.66667 5.3335Z" stroke="#283CFF" stroke-width="2.66667" stroke-linecap="round" stroke-linejoin="round"/>
</svg>
