<svg width="32" height="32" viewBox="0 0 32 32" fill="none" xmlns="http://www.w3.org/2000/svg">
<path d="M10.6667 12H21.3333M10.6667 17.3333H18.6667M17.3333 24L10.6667 28V24H8C6.93913 24 5.92172 23.5786 5.17157 22.8284C4.42143 22.0783 4 21.0608 4 20V9.33331C4 8.27245 4.42143 7.25503 5.17157 6.50489C5.92172 5.75474 6.93913 5.33331 8 5.33331H24C25.0609 5.33331 26.0783 5.75474 26.8284 6.50489C27.5786 7.25503 28 8.27245 28 9.33331V16.6666M25.3333 21.3333L22.6667 25.3333H28L25.3333 29.3333" stroke="#283CFF" stroke-width="2.66667" stroke-linecap="round" stroke-linejoin="round"/>
</svg>
