<svg width="32" height="32" viewBox="0 0 32 32" fill="none" xmlns="http://www.w3.org/2000/svg">
<path d="M14.667 15.9998C14.667 16.3535 14.8075 16.6926 15.0575 16.9426C15.3076 17.1927 15.6467 17.3332 16.0003 17.3332C16.3539 17.3332 16.6931 17.1927 16.9431 16.9426C17.1932 16.6926 17.3337 16.3535 17.3337 15.9998C17.3337 15.6462 17.1932 15.3071 16.9431 15.057C16.6931 14.807 16.3539 14.6665 16.0003 14.6665C15.6467 14.6665 15.3076 14.807 15.0575 15.057C14.8075 15.3071 14.667 15.6462 14.667 15.9998Z" stroke="#283CFF" stroke-width="2.66667" stroke-linecap="round" stroke-linejoin="round"/>
<path d="M16.0002 9.3335C14.6816 9.3335 13.3927 9.72449 12.2964 10.457C11.2 11.1896 10.3456 12.2308 9.84097 13.4489C9.33638 14.6671 9.20436 16.0076 9.4616 17.3008C9.71883 18.594 10.3538 19.7819 11.2861 20.7142C12.2185 21.6466 13.4064 22.2815 14.6996 22.5387C15.9928 22.796 17.3332 22.6639 18.5514 22.1594C19.7696 21.6548 20.8108 20.8003 21.5433 19.704C22.2758 18.6076 22.6668 17.3187 22.6668 16.0002" stroke="#283CFF" stroke-width="2.66667" stroke-linecap="round" stroke-linejoin="round"/>
<path d="M17.3335 4.07336C14.8616 3.79604 12.3646 4.29373 10.1879 5.49759C8.01119 6.70144 6.26239 8.55196 5.1834 10.7932C4.1044 13.0344 3.74854 15.5555 4.16503 18.0078C4.58151 20.4601 5.74977 22.7224 7.5082 24.4817C9.26663 26.241 11.5283 27.4104 13.9804 27.8281C16.4325 28.2458 18.9538 27.8913 21.1955 26.8134C23.4373 25.7355 25.2887 23.9877 26.4937 21.8116C27.6986 19.6355 28.1975 17.1387 27.9215 14.6667" stroke="#283CFF" stroke-width="2.66667" stroke-linecap="round" stroke-linejoin="round"/>
<path d="M20 12V8L24 4V8H28L24 12H20ZM20 12L16 16" stroke="#283CFF" stroke-width="2.66667" stroke-linecap="round" stroke-linejoin="round"/>
</svg>
