<svg width="32" height="32" viewBox="0 0 32 32" fill="none" xmlns="http://www.w3.org/2000/svg">
<path d="M18.0002 22.6667H5.3335C6.06008 22.2552 6.67991 21.6789 7.14308 20.9842C7.60625 20.2894 7.89982 19.4956 8.00016 18.6667V14.6667C8.07958 12.9748 8.6179 11.3364 9.55743 9.92707C10.497 8.51777 11.8023 7.3907 13.3335 6.66667C13.3335 5.95942 13.6144 5.28115 14.1145 4.78105C14.6146 4.28095 15.2929 4 16.0002 4C16.7074 4 17.3857 4.28095 17.8858 4.78105C18.3859 5.28115 18.6668 5.95942 18.6668 6.66667C20.198 7.3907 21.5034 8.51777 22.4429 9.92707C23.3824 11.3364 23.9207 12.9748 24.0002 14.6667V16M12.0002 22.6667V24C12.0001 24.6852 12.1761 25.3589 12.5113 25.9565C12.8464 26.5541 13.3294 27.0556 13.914 27.413C14.4986 27.7703 15.1652 27.9715 15.8499 27.9973C16.5346 28.023 17.2144 27.8724 17.8242 27.56M25.3335 21.3333L22.6668 25.3333H28.0002L25.3335 29.3333" stroke="#283CFF" stroke-width="2.66667" stroke-linecap="round" stroke-linejoin="round"/>
</svg>
