<svg width="32" height="32" viewBox="0 0 32 32" fill="none" xmlns="http://www.w3.org/2000/svg">
<path d="M17.9999 28H7.99992C7.29267 28 6.6144 27.719 6.1143 27.219C5.6142 26.7189 5.33325 26.0406 5.33325 25.3333V9.33333C5.33325 8.62609 5.6142 7.94781 6.1143 7.44772C6.6144 6.94762 7.29267 6.66667 7.99992 6.66667H23.9999C24.7072 6.66667 25.3854 6.94762 25.8855 7.44772C26.3856 7.94781 26.6666 8.62609 26.6666 9.33333V16M21.3333 4V9.33333M10.6666 4V9.33333M5.33325 14.6667H26.6666M25.3333 21.3333L22.6666 25.3333H27.9999L25.3333 29.3333" stroke="#283CFF" stroke-width="2.66667" stroke-linecap="round" stroke-linejoin="round"/>
</svg>
