<svg width="32" height="32" viewBox="0 0 32 32" fill="none" xmlns="http://www.w3.org/2000/svg">
<path d="M6.66683 5.3335H12.0002C12.3538 5.3335 12.6929 5.47397 12.943 5.72402C13.193 5.97407 13.3335 6.31321 13.3335 6.66683V14.6668C13.3335 15.0205 13.193 15.3596 12.943 15.6096C12.6929 15.8597 12.3538 16.0002 12.0002 16.0002H6.66683C6.31321 16.0002 5.97407 15.8597 5.72402 15.6096C5.47397 15.3596 5.3335 15.0205 5.3335 14.6668V6.66683C5.3335 6.31321 5.47397 5.97407 5.72402 5.72402C5.97407 5.47397 6.31321 5.3335 6.66683 5.3335ZM6.66683 21.3335H12.0002C12.3538 21.3335 12.6929 21.474 12.943 21.724C13.193 21.9741 13.3335 22.3132 13.3335 22.6668V25.3335C13.3335 25.6871 13.193 26.0263 12.943 26.2763C12.6929 26.5264 12.3538 26.6668 12.0002 26.6668H6.66683C6.31321 26.6668 5.97407 26.5264 5.72402 26.2763C5.47397 26.0263 5.3335 25.6871 5.3335 25.3335V22.6668C5.3335 22.3132 5.47397 21.9741 5.72402 21.724C5.97407 21.474 6.31321 21.3335 6.66683 21.3335ZM20.0002 16.0002H25.3335C25.6871 16.0002 26.0263 16.1406 26.2763 16.3907C26.5264 16.6407 26.6668 16.9799 26.6668 17.3335V25.3335C26.6668 25.6871 26.5264 26.0263 26.2763 26.2763C26.0263 26.5264 25.6871 26.6668 25.3335 26.6668H20.0002C19.6465 26.6668 19.3074 26.5264 19.0574 26.2763C18.8073 26.0263 18.6668 25.6871 18.6668 25.3335V17.3335C18.6668 16.9799 18.8073 16.6407 19.0574 16.3907C19.3074 16.1406 19.6465 16.0002 20.0002 16.0002ZM20.0002 5.3335H25.3335C25.6871 5.3335 26.0263 5.47397 26.2763 5.72402C26.5264 5.97407 26.6668 6.31321 26.6668 6.66683V9.3335C26.6668 9.68712 26.5264 10.0263 26.2763 10.2763C26.0263 10.5264 25.6871 10.6668 25.3335 10.6668H20.0002C19.6465 10.6668 19.3074 10.5264 19.0574 10.2763C18.8073 10.0263 18.6668 9.68712 18.6668 9.3335V6.66683C18.6668 6.31321 18.8073 5.97407 19.0574 5.72402C19.3074 5.47397 19.6465 5.3335 20.0002 5.3335Z" stroke="#283CFF" stroke-width="2.66667" stroke-linecap="round" stroke-linejoin="round"/>
</svg>
