<svg xmlns="http://www.w3.org/2000/svg" xmlns:xlink="http://www.w3.org/1999/xlink" width="500" zoomAndPan="magnify" viewBox="0 0 375 374.999991" height="500" preserveAspectRatio="xMidYMid meet" version="1.0"><defs><g/></defs><rect x="-37.5" width="450" fill="#ffffff" y="-37.499999" height="449.999989" fill-opacity="1"/><rect x="-37.5" width="450" fill="#18181b" y="-37.499999" height="449.999989" fill-opacity="1"/><g fill="#ffffff" fill-opacity="1"><g transform="translate(74.327163, 302.482648)"><g><path d="M 130.171875 -230.90625 C 147.179688 -230.90625 163.914062 -227.414062 180.375 -220.4375 C 196.832031 -213.457031 210.84375 -204.082031 222.40625 -192.3125 L 188.71875 -152.40625 C 181.300781 -161.5625 172.414062 -168.8125 162.0625 -174.15625 C 151.707031 -179.5 141.40625 -182.171875 131.15625 -182.171875 C 113.050781 -182.171875 97.894531 -175.789062 85.6875 -163.03125 C 73.476562 -150.28125 67.375 -134.53125 67.375 -115.78125 C 67.375 -96.59375 73.476562 -80.566406 85.6875 -67.703125 C 97.894531 -54.835938 113.050781 -48.40625 131.15625 -48.40625 C 140.75 -48.40625 150.722656 -50.800781 161.078125 -55.59375 C 171.429688 -60.394531 180.644531 -66.9375 188.71875 -75.21875 L 222.734375 -39.25 C 210.304688 -26.601562 195.640625 -16.460938 178.734375 -8.828125 C 161.835938 -1.203125 144.992188 2.609375 128.203125 2.609375 C 93.753906 2.609375 65.082031 -8.617188 42.1875 -31.078125 C 19.289062 -53.535156 7.84375 -81.550781 7.84375 -115.125 C 7.84375 -148.050781 19.507812 -175.578125 42.84375 -197.703125 C 66.175781 -219.835938 95.285156 -230.90625 130.171875 -230.90625 Z M 130.171875 -230.90625 "/></g></g></g></svg>